<?xml version="1.0" standalone="no"?>
<!DOCTYPE svg PUBLIC "-//W3C//DTD SVG 1.1//EN" "http://www.w3.org/Graphics/SVG/1.1/DTD/svg11.dtd" >
<!--
2013-9-30: Created.
-->
<svg>
<metadata>
Created by iconfont
</metadata>
<defs>

<font id="iconfont" horiz-adv-x="1024" >
  <font-face
    font-family="iconfont"
    font-weight="500"
    font-stretch="normal"
    units-per-em="1024"
    ascent="896"
    descent="-128"
  />
    <missing-glyph />
    
    <glyph glyph-name="x" unicode="x" horiz-adv-x="1001"
d="M281 543q-27 -1 -53 -1h-83q-18 0 -36.5 -6t-32.5 -18.5t-23 -32t-9 -45.5v-76h912v41q0 16 -0.5 30t-0.5 18q0 13 -5 29t-17 29.5t-31.5 22.5t-49.5 9h-133v-97h-438v97zM955 310v-52q0 -23 0.5 -52t0.5 -58t-10.5 -47.5t-26 -30t-33 -16t-31.5 -4.5q-14 -1 -29.5 -0.5
t-29.5 0.5h-32l-45 128h-439l-44 -128h-29h-34q-20 0 -45 1q-25 0 -41 9.5t-25.5 23t-13.5 29.5t-4 30v167h911zM163 247q-12 0 -21 -8.5t-9 -21.5t9 -21.5t21 -8.5q13 0 22 8.5t9 21.5t-9 21.5t-22 8.5zM316 123q-8 -26 -14 -48q-5 -19 -10.5 -37t-7.5 -25t-3 -15t1 -14.5
t9.5 -10.5t21.5 -4h37h67h81h80h64h36q23 0 34 12t2 38q-5 13 -9.5 30.5t-9.5 34.5q-5 19 -11 39h-368zM336 498v228q0 11 2.5 23t10 21.5t20.5 15.5t34 6h188q31 0 51.5 -14.5t20.5 -52.5v-227h-327z" />
    

    
    <glyph glyph-name="shouji" unicode="&#58901;" d="M759.885105 756.224696l-38.021476 0L302.03813 756.224696l-68.423102 0 0-68.325132 0-836.276525 9.761718 0 58.660361 0 419.824476 0 56.243213 0 12.178866 0 0 904.602679L759.885105 756.225719zM510.741793-88.510478c-24.952297 0-45.179796 20.227694-45.179796 45.178969 0 24.949228 20.227499 45.177945 45.179796 45.177945s45.181843-20.227694 45.181843-45.177945C555.923637-68.283808 535.695114-88.510478 510.741793-88.510478zM302.03813 60.226055 302.03813 687.900587 721.862606 687.900587l0-627.674533L302.03813 60.226055z"  horiz-adv-x="1024" />

    
    <glyph glyph-name="iconfont707" unicode="&#58896;" d="M914.817322 274.688521 109.182678 274.688521c-13.482059 0-24.413016 11.06501-24.413016 24.559349s10.930957 24.559349 24.413016 24.559349l805.634644 0c13.482059 0 24.413016-11.06501 24.413016-24.559349S928.299381 274.688521 914.817322 274.688521zM536.440645 702.064168l0-805.634644c0-13.482059-11.06501-24.413016-24.559349-24.413016s-24.559349 10.930957-24.559349 24.413016l0 805.634644c0 13.482059 11.06501 24.413016 24.559349 24.413016S536.440645 715.546228 536.440645 702.064168z"  horiz-adv-x="1024" />

    
    <glyph glyph-name="xiazai1" unicode="&#59041;" d="M929.408-84.448c-0.032 0-0.064 0-0.064 0L96-84.448c0 0-0.064 0-0.064 0-17.888 0-32.384-14.496-32.384-32.416 0-17.888 14.528-32.384 32.384-32.384 0 0 0.064 0 0.064 0l833.344 0c0 0 0.032 0 0.064 0 17.888 0 32.384 14.496 32.384 32.384C961.792-98.944 947.296-84.448 929.408-84.448zM488.384-15.2c6.048-6.08 14.368-9.888 23.616-9.888l0 0 0 0c9.248 0 17.568 3.776 23.552 9.92l402.528 402.528c6.048 6.016 9.856 14.336 9.888 23.52 0 18.336-14.976 33.184-33.216 33.184-9.216 0.032-17.504-3.744-23.488-9.76l-346.08-346.048L545.184 714.72c-0.032 0.032-0.032 0.032-0.032 0.064 0.032 18.336-14.816 33.216-33.12 33.216-18.336 0-33.184-14.88-33.184-33.216 0 0 0-0.032 0.032-0.064l0-626.432-346.048 346.048c-5.984 6.016-14.336 9.76-23.488 9.728-18.336 0.032-33.184-14.848-33.248-33.12 0-9.216 3.776-17.6 9.824-23.552L488.384-15.2z"  horiz-adv-x="1024" />

    
    <glyph glyph-name="xin1" unicode="&#59029;" d="M872.411 444.187c-23.328 86.678-92.829 137.823-184.419 137.547-68.947-0.394-131.25-42.898-171.47-116.857-40.735 73.78-105.733 116.746-174.149 116.925-92.628-0.598-158.901-50.898-181.836-137.932-6.113-23.198-6.251-48.103-6.432-76.931l-0.005-2.731c-1.009-156.7 337.494-420.239 351.909-431.361 3.294-2.544 7.188-3.787 11.070-3.787 5.422 0 10.783 2.407 14.366 7.046 6.124 7.895 4.675 19.303-3.261 25.434-94.201 72.859-338.559 287.198-337.815 402.464l0.005 2.731c0.16 26.389 0.304 49.166 5.222 67.902 25.258 95.813 102.957 110.623 147.014 110.901h0.853c55.635 0 109.026-37.796 142.979-101.271 4.29-8.004 13.216-24.688 30.175-24.688h0.090c16.985 0.035 26.033 17.29 29.879 24.615 33.686 64.041 85.312 100.951 141.618 101.271h1.062c36.468 0 121.321-11.12 148.115-110.724 5.298-19.623 5.439-43.57 5.613-72.295 0.459-67.339-81.914-178.381-231.918-312.741-7.456-6.658-8.096-18.13-1.422-25.61 6.7-7.471 18.173-8.080 25.61-1.421 111.681 100.034 244.671 240.19 243.999 340.962-0.194 30.255-0.354 56.398-6.859 80.551z"  horiz-adv-x="1024" />

    
    <glyph glyph-name="pingban" unicode="&#58889;" d="M869.218 771.068 155.359 771.068c-38.708 0-70.199-31.491-70.199-70.199l0-803.091c0-38.708 31.491-70.2 70.199-70.2l713.858 0c38.708 0 70.199 31.491 70.199 70.2L939.416 700.869C939.415 739.577 907.926 771.068 869.218 771.068zM155.359 719.902l713.858 0c10.495 0 19.033-8.538 19.033-19.033l0-599.044L136.326 101.825 136.326 700.869C136.326 711.365 144.864 719.902 155.359 719.902zM869.218-121.255 155.359-121.255c-10.495 0-19.034 8.538-19.034 19.034L136.325 50.66l751.925 0 0-152.881C888.25-112.717 879.713-121.255 869.218-121.255zM512.288 12.593c-26.407 0-47.891-21.482-47.891-47.891 0-26.407 21.484-47.891 47.891-47.891 26.407 0 47.892 21.483 47.892 47.891C560.18-8.89 538.696 12.593 512.288 12.593zM512.288-38.572c-1.806 0-3.274 1.47-3.274 3.274 0 1.806 1.47 3.274 3.274 3.274 1.806 0 3.275-1.469 3.275-3.274C515.563-37.103 514.095-38.572 512.288-38.572z"  horiz-adv-x="1024" />

    
    <glyph glyph-name="qingjia" unicode="&#58904;" d="M440.591936-157.70235c-15.012925 0-27.233248 12.130272-27.233248 27.043936l0 62.942541c0 127.477346 77.281107 240.541425 196.874903 288.036136l7.17747 2.849908-6.093788 4.755304c-45.267996 35.371602-71.237461 88.195691-71.237461 144.946206 0 101.673657 83.276658 184.391591 185.640024 184.391591s185.623651-82.717933 185.623651-184.391591c0-56.757678-25.968441-109.589954-71.237461-144.946206l-6.093788-4.755304 7.17747-2.849908c119.610168-47.493687 196.891276-160.557766 196.874903-288.036136l0-62.942541c0-14.914688-12.220323-27.043936-27.233248-27.043936L440.591936-157.70235zM983.582764-103.613454l0 35.897581c0 141.266397-115.66737 256.19494-257.82916 256.19494-142.210909 0-257.912048-114.928542-257.912048-256.19494l0-35.897581L983.582764-103.613454zM725.719835 503.181539c-72.321142 0-131.157155-58.458413-131.157155-130.310881s58.836013-130.310881 131.157155-130.310881 131.157155 58.458413 131.157155 130.310881S798.040978 503.181539 725.719835 503.181539zM359.449894 363.081711 227.521166 231.210287 270.227827 199.780461 417.16948 346.713928 417.16948 581.276175 359.449894 581.276175ZM69.722234 308.1711c-18.083867 84.262102-2.282996 170.528861 44.512796 242.907309 46.77942 72.386634 118.953206 122.213459 203.231681 140.305513 22.387893 4.804423 45.284369 7.252171 68.033489 7.252171 86.151126 0 169.970136-35.380812 230.481302-97.173157l63.697741 22.790052C607.047016 710.093029 497.637163 761.142705 385.599461 761.142705c-27.118638 0-54.450123-2.915399-81.256652-8.67252C203.934981 730.904007 117.832975 671.394658 61.93692 584.898679 6.025516 498.409862-12.881089 395.480608 8.686112 295.071757c32.604582-151.811568 151.672398-268.251533 303.787888-297.43111l39.914058 57.201793C212.54201 68.639678 99.501467 169.507994 69.722234 308.1711z"  horiz-adv-x="1039" />

    
    <glyph glyph-name="shanchu" unicode="&#58957;" d="M994.612398 582.891478l-85.165661 0L739.111423 582.891478l-454.222846 0L114.554261 582.891478 29.386604 582.891478C13.695251 582.891478 0.998051 595.644569 0.998051 611.281029c0 15.691353 12.697201 28.389552 28.388554 28.389552l198.722869 0L228.109474 753.226791C228.110472 784.609497 253.504873 810.003899 284.887579 810.003899l454.222846 0c31.331805 0 56.778105-25.394402 56.778105-56.777107l0-113.556211 198.722869 0c15.694347 0 28.389552-12.699197 28.389552-28.389552C1023.001949 595.644569 1010.305747 582.891478 994.612398 582.891478zM739.111423 696.447688c0 31.383704-25.448296 56.779103-56.778105 56.779103L341.666682 753.226791c-31.383704 0-56.779103-25.3954-56.779103-56.779103l0-56.777107c170.334316 0 278.565926 0 454.222846 0L739.110425 696.447688zM398.443789 43.500975 398.443789 440.946713c0 15.691353 12.698199 28.388554 28.389552 28.388554s28.389552-12.697201 28.389552-28.388554L455.222893 43.500975c0-15.635462-12.698199-28.387556-28.389552-28.387556S398.443789 27.865513 398.443789 43.500975zM568.778105 43.500975 568.778105 440.946713c0 15.691353 12.700195 28.388554 28.389552 28.388554 15.692351 0 28.387556-12.697201 28.387556-28.388554L625.555212 43.500975c0-15.635462-12.696203-28.387556-28.387556-28.387556C581.477302 15.113419 568.778105 27.865513 568.778105 43.500975zM228.110472-98.444788c0-31.381708 25.394402-56.778105 56.778105-56.778105l454.222846 0c31.331805 0 56.778105 25.3954 56.778105 56.778105L795.889528 469.335267l56.778105 0 0-624.557162c0-31.383704-25.448296-56.778105-56.778105-56.778105L228.110472-212c-31.382706 0-56.779103 25.393404-56.779103 56.778105L171.331368 469.335267l56.779103 0L228.110472-98.444788z"  horiz-adv-x="1024" />

    
    <glyph glyph-name="tuxiang" unicode="&#58934;" d="M859.072-96h-505.131c0 0-161.749 0-215.659 0-31.616 0-51.115 14.997-68.48 34.091-17.493 19.2-27.136 44.117-27.136 70.123v559.168c0 57.451 46.741 104.213 104.213 104.213h712.171c57.472 0 104.213-46.741 104.213-104.213v-205.248c0-0.299 0-0.533-0.021-0.832-0.021-0.491-2.027-53.248 15.957-88 4.864-9.408 1.173-20.949-8.213-25.792-9.387-4.885-20.928-1.216-25.792 8.213-21.931 42.368-20.437 100.544-20.203 106.795v204.885c0 36.373-29.568 65.92-65.941 65.92h-712.171c-36.352 0-65.92-29.547-65.92-65.92v-559.168c0-33.749 25.045-61.952 58.389-65.707l719.701-0.213c36.352 0 65.92 29.547 65.92 65.92l-0.405 105.088c-0.107 1.792-1.643 20.117-20.117 43.755-0.043 0.085-0.107 0.128-0.149 0.213l-22.357 29.333-120.704 159.701c-0.427 0.576-40.149 52.373-88.832 46.869-39.467-4.416-78.208-46.507-112-121.621-18.155-40.299-35.669-70.293-53.632-91.669-18.133-21.632-36.736-34.539-56.896-39.467-44.715-10.965-83.456 19.541-124.48 51.883l-5.205 4.075c-47.936 37.675-70.784 29.035-163.029-61.376-7.552-7.424-19.669-7.296-27.072 0.256-7.403 7.573-7.275 19.669 0.277 27.093 48.043 47.125 79.851 74.88 110.251 86.784 34.347 13.419 66.197 6.464 103.211-22.677l5.248-4.117c34.944-27.499 65.088-51.243 91.669-44.757 26.368 6.464 54.869 43.371 84.715 109.675 40.299 89.579 88.384 138.005 142.912 144 70.485 7.744 121.323-59.093 123.456-61.952l120.597-159.573 22.229-29.163c27.051-34.624 28.139-63.467 28.181-66.667 0-0.043 0-0.085 0-0.128l0.405-105.451c0.021-57.6-46.72-104.341-104.171-104.341zM302.187 371.413c-43.584 0-79.040 43.669-79.040 87.253s35.456 79.040 79.040 79.040 79.040-35.456 79.040-79.040-35.456-87.253-79.040-87.253zM302.187 499.413c-22.464 0-40.768-18.283-40.768-40.747s18.283-48.96 40.768-48.96 40.747 26.496 40.747 48.96-18.283 40.747-40.747 40.747z"  horiz-adv-x="1024" />

    
    <glyph glyph-name="appfasongduanxin" unicode="&#59386;" d="M949.563172 689.962549l-609.798397-609.800443c-12.065803-12.005428-31.562856-12.005428-43.598984 0-12.007475 12.008498-12.007475 31.533181 0 43.598984L905.992841 733.561533c12.037151 12.006452 31.501458 12.006452 43.569308 0C961.569624 721.49573 961.569624 702.027329 949.563172 689.962549L949.563172 689.962549 949.563172 689.962549zM125.034203 619.435263l0-638.709867c0-36.777625 29.785374-66.532299 66.506716-66.532299l638.70782 0c36.751019 0 66.566068 29.753651 66.566068 66.532299l0 442.835757 61.724807 0 0-493.924319c0-42.606377-34.56319-77.199243-77.171614-77.199243L140.451334-147.562409c-42.578748 0-77.171614 34.593889-77.171614 77.199243L63.27972 670.553501c0 42.6074 34.592866 77.171614 77.171614 77.171614l524.81691 0 0-61.754482L191.539896 685.970632C154.818553 685.970632 125.034203 656.156606 125.034203 619.435263L125.034203 619.435263 125.034203 619.435263zM125.034203 619.435263"  horiz-adv-x="1024" />

    
    <glyph glyph-name="taiyang" unicode="&#58881;" d="M260.20202 595.781818c10.731313-10.731313 28.056566-10.731313 38.787879 0 10.731313 10.731313 10.731313 28.056566 0 38.787879l-58.052525 58.052525c-10.731313 10.731313-28.056566 10.731313-38.787879 0-10.731313-10.731313-10.731313-28.056566 0-38.787879L260.20202 595.781818 260.20202 595.781818zM775.434343 607.935354l57.535354 57.535354c10.60202 10.60202 10.60202 27.79798 0 38.4-10.60202 10.60202-27.79798 10.60202-38.4 0L737.034343 646.335354c-10.60202-10.60202-10.60202-27.79798 0-38.4C747.636364 597.333333 764.832323 597.333333 775.434343 607.935354L775.434343 607.935354zM511.935354 684.088889c15.127273 0 27.410101 12.282828 27.410101 27.410101L539.345455 793.6c0 15.127273-12.282828 27.410101-27.410101 27.410101-15.127273 0-27.410101-12.282828-27.410101-27.410101l0-82.10101C484.525253 696.371717 496.808081 684.088889 511.935354 684.088889L511.935354 684.088889zM183.272727 410.246465l-82.10101 0c-15.127273 0-27.410101-12.282828-27.410101-27.410101 0-15.127273 12.282828-27.410101 27.410101-27.410101l82.10101 0c15.127273 0 27.410101 12.282828 27.410101 27.410101C210.682828 397.963636 198.4 410.246465 183.272727 410.246465L183.272727 410.246465zM511.935354 629.39798c-136.274747 0-246.690909-110.416162-246.690909-246.690909 0-136.274747 110.416162-246.690909 246.690909-246.690909 136.274747 0 246.690909 110.416162 246.690909 246.690909C758.626263 518.981818 648.210101 629.39798 511.935354 629.39798L511.935354 629.39798zM922.828283 410.246465l-82.10101 0c-15.127273 0-27.410101-12.282828-27.410101-27.410101 0-15.127273 12.282828-27.410101 27.410101-27.410101l82.10101 0c15.127273 0 27.410101 12.282828 27.410101 27.410101C950.109091 397.963636 937.955556 410.246465 922.828283 410.246465L922.828283 410.246465zM763.668687 169.761616c-10.731313 10.731313-28.056566 10.731313-38.787879 0-10.731313-10.731313-10.731313-28.056566 0-38.787879l58.052525-58.052525c10.731313-10.731313 28.056566-10.731313 38.787879 0 10.731313 10.731313 10.731313 28.056566 0 38.787879L763.668687 169.761616 763.668687 169.761616zM276.751515 185.923232l-57.535354-57.535354c-10.60202-10.60202-10.60202-27.79798 0-38.4 10.60202-10.60202 27.79798-10.60202 38.4 0l57.535354 57.535354c10.60202 10.60202 10.60202 27.79798 0 38.4C304.420202 196.525253 287.224242 196.525253 276.751515 185.923232L276.751515 185.923232zM511.935354 81.583838c-15.127273 0-27.410101-12.282828-27.410101-27.410101l0-82.10101c0-15.127273 12.282828-27.410101 27.410101-27.410101 15.127273 0 27.410101 12.282828 27.410101 27.410101l0 82.10101C539.345455 69.30101 527.062626 81.583838 511.935354 81.583838L511.935354 81.583838zM511.935354 81.583838"  horiz-adv-x="1024" />

    
    <glyph glyph-name="shoucang1" unicode="&#58895;" d="M327.728136 91.698724l150.60509 60.966537 33.721009 13.627369 33.721009-13.627369 150.609183-60.914348-4.484128 166.562527-0.907673 32.985252 20.663622 25.711592 96.563266 120.353089L652.842749 484.425224l-30.030967 9.081843-17.825994 25.716708-92.931552 134.033669-92.871177-134.033669-17.825994-25.716708-30.033014-9.081843-155.490354-47.120181 96.566336-120.29476 20.663622-25.711592-0.907673-32.985252L327.728136 91.698724M789.940197-43.129031 512.054235 69.272969 234.17339-43.129031l8.115841 303.886125L62.389956 484.824313l282.879696 85.667102L512.054235 811.130054l166.843936-240.638639 282.711873-85.667102L781.766027 260.756071 789.940197-43.129031 789.940197-43.129031 789.940197-43.129031z"  horiz-adv-x="1024" />

    
    <glyph glyph-name="fangzi-copy" unicode="&#58880;" d="M969.5 323.443l-468.75 363.867-468.75-363.867v148.359l468.75 363.867 468.75-363.867zM852.313 336.656v-351.563h-234.375v234.375h-234.375v-234.375h-234.375v351.563l351.563 263.672z"  horiz-adv-x="1000" />

    
    <glyph glyph-name="fangxiangyou" unicode="&#59002;" d="M744.81444 384c0-10.855232-4.312212-21.267373-11.989055-28.943193L349.061001-28.706553c-15.985066-15.985066-41.902342-15.985066-57.886385 0-15.985066 15.985066-15.985066 41.901319 0 57.886385l354.821191 354.820168-354.821191 354.820168c-15.985066 15.985066-15.985066 41.901319 0 57.886385 15.985066 15.985066 41.901319 15.985066 57.886385 0l383.764384-383.76336C740.502227 405.267373 744.81444 394.856255 744.81444 384z"  horiz-adv-x="1024" />

    
    <glyph glyph-name="fangxiangxia" unicode="&#59012;" d="M512 151.18556c-10.855232 0-21.267373 4.312212-28.943193 11.989055L99.292424 546.938999c-15.985066 15.985066-15.985066 41.902342 0 57.886385 15.985066 15.985066 41.901319 15.985066 57.886385 0l354.820168-354.821191 354.820168 354.821191c15.985066 15.985066 41.901319 15.985066 57.886385 0 15.985066-15.985066 15.985066-41.901319 0-57.886385L540.943193 163.174616C533.267373 155.497773 522.855232 151.18556 512 151.18556z"  horiz-adv-x="1024" />

    
    <glyph glyph-name="fangxiangzuo" unicode="&#59014;" d="M279.18556 384c0 10.855232 4.312212 21.267373 11.989055 28.943193L674.937976 796.707576c15.985066 15.985066 41.902342 15.985066 57.886385 0 15.985066-15.985066 15.985066-41.901319 0-57.886385l-354.821191-354.820168 354.821191-354.820168c15.985066-15.985066 15.985066-41.901319 0-57.886385-15.985066-15.985066-41.901319-15.985066-57.886385 0L291.174616 355.056807C283.497773 362.732627 279.18556 373.144768 279.18556 384z"  horiz-adv-x="1024" />

    
    <glyph glyph-name="jiahao" unicode="&#58897;" d="M889.711907-56.663891 329.680822-56.663891C248.965862-56.663891 183.313905 8.988066 183.313905 89.560921L183.313905 649.73411C183.313905 730.306966 248.965862 795.958923 329.680822 795.958923l560.173189 0C970.426867 795.958923 1035.936719 730.306966 1035.936719 649.73411l0-560.031085C1035.936719 8.988066 970.426867-56.663891 889.711907-56.663891zM329.680822 781.748543C256.781571 781.748543 197.524285 722.491257 197.524285 649.73411l0-560.031085c0-72.757147 59.257286-132.014432 132.014432-132.014432l560.173189 0c72.757147 0 132.014432 59.257286 132.014432 132.014432L1021.726339 649.73411c0 72.757147-59.257286 132.014432-132.014432 132.014432L329.680822 781.748543zM751.729115 380.731613 623.835692 380.731613 623.835692 508.625035 581.204552 508.625035 581.204552 380.731613 453.31113 380.731613 453.31113 338.100472 581.204552 338.100472 581.204552 210.20705 623.835692 210.20705 623.835692 338.100472 751.729115 338.100472Z"  horiz-adv-x="1108" />

    
    <glyph glyph-name="xiazai2" unicode="&#58961;" d="M505.163941 879.527301c-277.768792 0-502.936688-225.167896-502.936688-502.938705 0-277.7698 225.167896-502.939713 502.936688-502.939713 277.772825 0 502.940722 225.169913 502.940722 502.939713C1008.104663 654.359405 782.936766 879.527301 505.163941 879.527301zM505.163941-76.057649c-249.981827 0-452.644229 202.6503-452.644229 452.646246S255.182113 829.233834 505.163941 829.233834c249.998972 0 452.646246-202.649291 452.646246-452.645238S755.161904-76.057649 505.163941-76.057649zM682.98619 412.148004 530.312691 259.472488l0 368.583444-50.295484 0 0-368.583444-152.673499 152.675516-35.559407-35.559407 177.822249-177.821241-0.003025 0 35.559407-35.558399 35.561424 35.558399-0.002017 0 177.821241 177.821241L682.98619 412.148004z"  horiz-adv-x="1024" />

    
    <glyph glyph-name="caidan" unicode="&#58883;" d="M127.9994 137.566826c-33.998349 0-64.417725-28.629589-64.417725-62.627339 0-33.998949 30.419376-64.418125 64.417725-64.418125 33.997949 0 62.627938 30.419376 62.627938 64.418125C190.627139 108.937436 161.99715 137.566826 127.9994 137.566826zM127.9994 445.352947c-33.998349 0-64.417725-28.629989-64.417725-62.627938 0-34.006943 30.419376-62.642329 64.417725-62.642329 33.997949 0 62.627938 28.635585 62.627938 62.642329C190.627139 416.722958 161.99715 445.352947 127.9994 445.352947zM357.038912 633.237561l542.180602 0c32.209162 0 59.049764 25.051015 59.049764 57.259578 0 32.209162-26.840602 59.049764-59.049764 59.049764L357.038912 749.546903c-32.208563 0-59.049365-26.840802-59.049365-59.049764C297.989747 658.288376 324.830349 633.237561 357.038912 633.237561zM127.9994 754.914664c-33.998349 0-64.417725-30.419376-64.417725-64.417725 0-33.997949 30.419376-62.627938 64.417725-62.627938 33.997949 0 62.627938 28.629989 62.627938 62.627938C190.627139 724.495488 161.99715 754.914664 127.9994 754.914664zM899.219513 441.774373 357.038912 441.774373c-32.208563 0-59.049365-26.840802-59.049365-59.049365 0-32.216157 26.840802-59.062755 59.049365-59.062755l542.180602 0c32.209162 0 59.049764 26.846598 59.049764 59.062755C958.269277 414.933571 931.428675 441.774373 899.219513 441.774373zM899.219513 133.988252 357.038912 133.988252c-32.208563 0-59.049365-26.840802-59.049365-59.048765 0-32.209162 26.840802-59.049764 59.049365-59.049764l542.180602 0c32.209162 0 59.049764 26.840602 59.049764 59.049764C958.269277 107.14745 931.428675 133.988252 899.219513 133.988252z"  horiz-adv-x="1024" />

    
    <glyph glyph-name="fasong" unicode="&#59153;" d="M826.584243 527.477763 653.739322 527.477763c-15.91892 0-29.565579-14.020333-29.565579-30.378395 0-16.357055 13.645652-30.378395 29.565579-30.378395l172.844921 0c47.758774 0 86.422461-39.726291 86.422461-88.799471l0-358.362532c0-49.07318-38.663687-88.798464-86.422461-88.798464L197.415757-69.239495c-47.759781 0-86.422461 39.725284-86.422461 88.798464L110.993296 380.25923c0 49.072173 38.66268 88.798464 86.422461 88.798464l204.684775 0c15.91892 0 29.565579 14.02134 29.565579 30.379403 0 16.358062-13.645652 30.378395-29.565579 30.378395l-204.684775 0c-79.598628 0-145.553618-67.76595-145.553618-149.555255l0-358.362532c0-81.789305 65.953983-149.555255 145.553618-149.555255l629.168487 0c79.598628 0 145.553618 67.76595 145.553618 149.555255L972.137862 380.25923C969.861572 462.048535 906.182871 527.477763 826.584243 527.477763zM523.99786 879.52208c9.24919 0 17.039942-3.295584 23.366214-9.884738l208.177772-171.174971c6.326272-6.589154 9.490919-14.70322 9.490919-24.337163 0-9.809197-3.122344-17.966573-9.367033-24.470114-6.244689-6.504548-14.075729-9.755815-23.491108-9.755815-9.254226 0-17.042964 3.295584-23.370243 9.884738L556.881181 762.649712l0-604.777942c0-9.445595-3.211986-17.516351-9.635957-24.212269-6.429008-6.690882-14.177457-10.035819-23.247364-10.035819-9.072928 0-16.822385 3.345944-23.247364 10.035819-6.429008 6.695918-9.642001 14.766674-9.642001 24.212269l0 604.777942L339.190331 649.785024c-6.672752-6.589154-14.463504-9.884738-23.370243-9.884738-9.073935 0-16.823392 3.345944-23.248371 10.03884-6.429008 6.690882-9.640993 14.761638-9.640993 24.211262 0 9.277391 3.16364 17.389443 9.490919 24.340184L500.600422 869.664537c6.326272 6.589154 14.117025 9.884738 23.370243 9.884738L523.99786 879.52208z"  horiz-adv-x="1024" />

    
    <glyph glyph-name="bianji" unicode="&#58890;" d="M789.05606-63.696462 199.328791-63.696462c-45.871747 0-83.071997 37.20025-83.071997 83.071997L116.256794 698.943972c0 38.823214 31.494295 70.317509 70.317509 70.317509L660.896168 769.261481c17.732873 0 32.054043-4.699022 32.054043-22.376637s-14.32117-22.376637-32.054043-22.376637L180.029236 724.508207c-10.461259 0-19.020192-8.558933-19.020192-18.96391l0-690.476881c0-23.103184 6.377244-34.011628 34.347273-34.011628l593.69872 0c51.353598 0 51.353598 26.795273 51.353598 44.472887L840.408635 544.994718c0 17.677615 4.64274 30.432103 22.376637 30.432103 17.677615 0 22.376637-12.754488 22.376637-30.432103l0-531.884886C885.161908-39.920966 842.031599-63.696462 789.05606-63.696462M600.815815 448.888869c-15.160281 0-30.375821 10.796904-33.172517 32.165584-0.839111 6.656607 1.5104 13.482059 6.265704 18.23634L896.573819 821.957657c12.530384 12.530384 32.781614 12.530384 45.311998 0 12.530384-12.530384 12.530384-32.781614 0-45.311998L623.471814 458.286913C617.262392 452.02121 609.039103 448.888869 600.815815 448.888869M468.683449 448.888869 276.470729 448.888869c-17.677615 0-32.054043 4.251837-32.054043 21.928429 0 17.732873 14.376429 22.655999 32.054043 22.655999l192.21272 0c17.677615 0 32.054043-4.923126 32.054043-22.655999C500.737492 453.140707 486.361063 448.888869 468.683449 448.888869M660.896168 256.67615 276.470729 256.67615c-17.677615 0-32.054043 4.64274-32.054043 22.376637 0 17.732873 14.376429 22.376637 32.054043 22.376637L660.896168 301.429423c17.732873 0 30.655184-4.978385 30.655184-22.712281C691.551352 260.984269 678.629042 256.67615 660.896168 256.67615"  horiz-adv-x="1024" />

    
    <glyph glyph-name="lianjie" unicode="&#59003;" d="M241.514335-85.766538C106.269301-7.670335 59.784476 165.319908 138.004229 300.563692L178.416376 370.664078 218.828522 440.642158 380.414707 720.674295 420.888005 790.713528C476.671542 887.28111 600.326565 920.441235 696.8929 864.657697 793.585282 808.874159 826.744159 685.221628 770.899468 588.591647L669.806702 413.618361 628.961508 342.771684 487.953297 98.56536C454.543576 40.55168 380.352308 20.716256 322.337378 54.124729 264.3836 87.656751 244.488275 161.849269 278.020298 219.7394L399.256736 429.795946 423.119395 471.261393 500.224701 604.830385C511.444059 624.16911 536.111667 630.802133 555.450392 619.645176 574.787872 608.42582 581.483292 583.694565 570.265183 564.357087L493.159877 430.848 469.233571 389.381309 347.997133 179.38716C336.779025 160.04968 343.473199 135.380827 362.811924 124.162718 382.15065 113.06691 406.818258 119.637536 418.037615 138.912614L620.098343 488.98523 640.242018 524.004847 656.729108 552.578637 680.655415 594.04408 700.860239 629.002546C734.392261 687.016226 714.496937 761.147592 656.543157 794.617215 598.529477 828.086838 524.335711 808.253911 490.928489 750.237735L430.247871 645.241283 410.104197 610.220419 268.599283 365.272797 248.330811 330.25193 207.981065 260.212697C176.989933 206.598152 174.325492 144.86424 193.66297 90.879043 194.778665 88.028652 195.769562 85.177013 197.010056 82.325374 199.488548 76.126649 202.093086 69.990321 205.316623 64.164746 209.283957 56.478425 213.869043 49.162756 218.828522 42.036779 221.431812 38.380193 224.282203 34.971955 227.133841 31.501316 232.463971 24.807144 238.351949 18.422469 244.736623 12.410939 247.338665 9.992353 249.943204 7.512611 252.732443 5.281221 261.71916-2.465 271.264972-9.654626 281.987632-15.853351 378.553966-71.63689 502.207744-38.54041 557.991282 58.08957L618.609503 163.149666 780.320484 443.181804 800.462911 478.139022 820.670232 513.159885C831.888341 532.434963 856.557194 539.067986 875.894674 527.972181 895.233398 516.754072 901.865173 492.085216 890.708216 472.747741L870.503389 437.726874 850.297316 402.707259 627.970611 17.741072C549.810763-117.563865 376.819271-163.92639 241.514335-85.766538L241.514335-85.766538Z"  horiz-adv-x="1024" />

    
    <glyph glyph-name="fangxiangshang" unicode="&#58928;" d="M512 616.81444c10.855232 0 21.267373-4.312212 28.943193-11.989055l383.76336-383.764384c15.985066-15.985066 15.985066-41.902342 0-57.886385-15.985066-15.985066-41.901319-15.985066-57.886385 0l-354.820168 354.821191-354.820168-354.821191c-15.985066-15.985066-41.901319-15.985066-57.886385 0-15.985066 15.985066-15.985066 41.901319 0 57.886385L483.056807 604.825384C490.731604 612.502227 501.143745 616.81444 512 616.81444z"  horiz-adv-x="1024" />

    
    <glyph glyph-name="webdiyxuansucai" unicode="&#59056;" d="M724.44215-128 689.366288-128C687.095641-127.336896 684.863508-126.35272 682.553063-126.06086 603.282572-116.013831 538.628435-59.473382 516.85551 18.942581 515.53287 23.701068 514.350282 28.501565 512.358564 36.140137 510.843243 30.546967 510.133432 27.917798 509.415453 25.288862 489.010913-49.554824 442.55019-98.067883 370.433706-120.319342 359.376794-123.728252 347.844883-125.478283 336.532263-127.998786L299.391274-127.998786C295.107906-127.074178 290.852659-126.014119 286.542447-125.251765 205.190258-110.879402 141.220255-47.954192 124.609852 34.078515 107.589688 118.143666 141.590332 201.194405 212.205384 248.081341 214.569513 249.650349 216.798144 251.433042 220.141676 253.882368 217.729814 254.1718 217.042177 254.379655 216.382552 254.313133 120.369661 245.145234 34.283614 305.953883 7.969464 401.827776 4.722799 413.664408 2.761494 425.873566 0.2048 437.912219L0.2048 476.206735C0.876073 478.528734 1.815868 480.802997 2.174274 483.172846 14.083356 561.368234 54.793307 617.387938 126.203366 646.333545 197.245797 675.131986 263.739933 662.871476 323.747623 614.059579 325.934241 612.279217 328.204888 610.605059 331.777281 607.846461 287.819568 716.689507 335.912319 811.064419 392.744653 854.915929 458.643351 905.767392 549.207669 909.969069 618.267721 864.41539 653.177859 841.387634 679.012182 810.248406 694.831081 770.814479 716.36219 717.13778 715.157428 663.263843 693.80371 609.102576 730.620138 641.747787 772.773098 659.519775 820.751474 660.896215 869.296113 662.29016 912.939769 647.008344 950.710041 615.481534 1016.113667 560.893004 1040.606562 470.189685 1013.105085 389.064142 989.486557 319.3957 917.519574 243.753621 803.950721 254.07505 807.552293 251.484511 809.959485 249.707535 812.413478 247.997314 883.558611 198.399628 913.483738 129.161017 901.164875 42.077828 889.780013-38.412598 829.466434-102.967594 751.439222-122.224567 742.507069-124.42763 733.444207-126.087724 724.44215-128L724.44215-128ZM511.035927 147.284293C618.283008 145.766637 708.715567 236.39176 710.286789 346.963702 711.931769 462.664318 625.07044 554.707895 513.011188 556.011859 406.303293 557.252921 315.681786 466.612625 314.012298 356.971069 312.257612 241.499197 399.295169 148.866136 511.035927 147.284293L511.035927 147.284293Z"  horiz-adv-x="1025" />

    
    <glyph glyph-name="sousuo" unicode="&#59021;" d="M72.824471 304.459294C29.786353 505.765647 151.913412 703.457882 345.569882 746.074353c193.656471 42.586353 385.536-86.016 428.544-287.322353 43.068235-201.306353-78.998588-399.028706-272.685176-441.645176C307.742118-25.449412 115.892706 103.183059 72.824471 304.459294L72.824471 304.459294zM753.302588 105.652706l227.388235-152.395294 41.923765 67.915294-226.484706 151.853176c45.357176 88.214588 61.650824 193.264941 39.002353 299.128471-50.537412 236.272941-275.757176 387.312941-503.115294 337.287529C104.658824 759.446588-38.671059 527.390118 11.866353 291.087059c50.537412-236.333176 275.757176-387.343059 503.115294-337.317647C612.954353-24.696471 695.326118 30.72 753.302588 105.652706L753.302588 105.652706z"  horiz-adv-x="1024" />

    
    <glyph glyph-name="shenfen" unicode="&#58938;" d="M551.550103-32.655787 60.856647-32.655787C37.345687-32.655787 19.059382-14.163769 19.059382 9.611719 19.059382 9.611719 19.059382 162.831332 128.777205 218.307413 199.310091 252.649756 173.186802 226.232576 256.781332 260.574891 342.988194 297.558955 363.886828 308.12581 363.886828 308.12581L363.886828 392.660793C363.886828 392.660793 332.538877 416.436252 322.08956 495.687794 301.190929 490.404352 295.966271 519.463253 293.353941 537.955271 293.353941 556.447289 282.904624 614.565092 306.415588 609.28165 301.190929 648.907435 298.5786 683.249749 298.5786 701.741796 303.803258 765.143012 366.499157 833.827669 460.543004 839.111111 570.260827 833.827669 614.670424 767.784732 622.507412 701.741796 625.119741 683.249749 619.895083 648.907435 614.670424 609.28165 638.181385 614.565092 627.73207 556.447289 627.73207 537.955271 627.73207 519.463253 619.895083 490.404352 598.996449 495.687794 588.547132 416.436252 557.199184 392.660793 557.199184 392.660793L557.199184 310.767531C557.199184 310.767531 562.615467 308.028928 579.307418 300.46043 539.048539 248.77093 515.029362 183.541362 515.029362 112.638692 515.029362 60.008932 528.263504 10.50496 551.550103-32.655787ZM801.901716 339.907698C683.727704 339.907698 589.188494 242.249216 589.188494 120.176071 589.188494-1.897045 683.727704-99.555556 801.901716-99.555556 920.075728-99.555556 1014.614938-1.897045 1014.614938 120.176071 1014.614938 242.249216 920.075728 339.907698 801.901716 339.907698L801.901716 339.907698ZM920.992205 188.643015 813.415063 42.582642C802.037333 26.779221 779.298267 28.997774 776.199191 35.400448 776.199191 35.400448 712.724235 87.957618 703.587115 97.135246 694.449994 106.312875 697.388959 116.343239 703.587115 122.745884L719.082502 138.75254C725.280657 145.155214 737.676965 145.155214 743.87512 138.75254L786.692173 104.849749 871.40697 220.656327C877.605126 230.260309 890.001434 230.260309 896.199589 227.058972 896.199589 227.058972 917.89312 213.907257 920.992199 207.504612 926.81462 202.511104 920.992205 188.643015 920.992205 188.643015Z"  horiz-adv-x="1024" />

    
    <glyph glyph-name="chengjidan" unicode="&#58916;" d="M353.003288 507.651204l190.437284 0c17.848507 0 32.293497 14.278191 32.293497 31.877011 0 17.682731-14.443967 31.878035-32.293497 31.878035l-190.437284 0c-17.847483 0-32.29145-14.279215-32.29145-31.878035C320.711837 521.764644 335.196737 507.651204 353.003288 507.651204zM671.284261 401.392112 352.671737 401.392112c-17.432021 0-31.958876-14.279215-31.958876-31.877011 0-17.764596 14.320147-31.878035 31.958876-31.878035l318.612525 0c17.433044 0 31.959899 14.278191 31.959899 31.878035C703.245184 387.196809 688.925037 401.392112 671.284261 401.392112zM671.284261 231.37695 352.671737 231.37695c-17.432021 0-31.958876-14.279215-31.958876-31.878035 0-17.765619 14.320147-31.877011 31.958876-31.877011l318.612525 0c17.433044 0 31.959899 14.278191 31.959899 31.877011C703.245184 217.181647 688.925037 231.37695 671.284261 231.37695zM803.528168 584.606901 641.398604 752.130312c-10.998495 11.414981-25.526373 17.682731-40.925085 17.682731L261.313006 769.813043c-32.375362 0-58.690704-28.059056-58.690704-62.510706l0-646.604674c0-34.452673 26.316366-62.510706 58.690704-62.510706l501.328963 0c32.376385 0 58.733683 28.058033 58.733683 62.510706L821.375651 539.73697C821.376675 556.546821 814.859237 572.902324 803.528168 584.606901zM766.088464 60.697663c0-4.898567-2.740414-7.223518-3.445472-7.223518L261.313006 53.474145c-0.664126 0-3.485381 2.407839-3.485381 7.223518L257.827625 707.302337c0 4.856611 2.821255 7.263427 3.485381 7.263427l340.362898-0.787946L763.8464 546.169473c1.412163-1.452071 2.241041-3.900843 2.241041-6.432503L766.087441 60.697663z"  horiz-adv-x="1024" />

    
    <glyph glyph-name="tuijian" unicode="&#58891;" d="M973.497001 490.50023C951.874753 526.768738 914.449093 549.415893 876.031583 550.606108L637.790137 551.796323C653.659676 599.636369 661.693629 649.526231 661.693629 700.0112 661.693629 725.104908 659.610754 750.760662 655.0152 778.466231L650.584954 798.501523C637.922387 855.830231 589.685599 896 533.150369 896 466.663617 896 412.574941 839.563954 412.574941 770.101662 412.574941 766.068154 412.707186 762.13383 413.070864 758.827677 409.79777 635.706508 267.732338 508.651016 219.42943 508.651016L219.363308 508.651016 42.351831 508.551831C19.241815 508.551831 0.4298 488.847155 0.4298 464.745291L0-51.940431C0-76.439032 20.332846-94.292259 45.790231-95.019615L199.228831-94.722064 205.113785-95.846156 210.271385-95.085737 794.237338-95.317169C814.768553-93.8294 834.572414-87.18403 851.764417-75.744736 870.378063-63.280538 885.388-45.724861 892.198676-30.285123L899.339969-17.887047C939.575863 82.024925 988.672248 388.042524 990.655937 400.969586L991.449415 413.367662C993.466167 440.841799 987.250601 467.489402 973.497001 490.50023L973.497001 490.50023 973.497001 490.50023ZM72.008031 433.5352 167.456692 433.667446 167.456692-20.531968 71.644353-20.796459 72.008031 433.5352 72.008031 433.5352 72.008031 433.5352ZM835.597324 15.571232 831.067892 8.099324C827.001324-0.496675 820.785755-7.737155 813.181601-12.828633 806.238677-17.457247 798.006355-20.201354 791.790785-20.664214L239.034923-20.432786 239.034923 437.634832C333.425616 456.810524 480.549463 607.339708 484.549908 762.497508L484.120107 770.101662C484.120107 798.336215 506.106029 821.347046 533.150369 821.347046 556.128138 821.347046 575.73363 805.047708 580.891231 781.6732L584.891676 763.919154C588.396201 742.495277 590.115399 721.0714 590.115399 700.143446 590.115399 657.758554 583.337783 615.869585 569.881738 575.765938L536.952446 477.275616 862.873092 477.209494 870.576431 476.382952C887.900676 475.721724 903.637969 466.23306 912.729891 450.991691 918.383415 441.503031 920.962213 430.460475 920.102617 413.202353 919.606693 410.226814 870.378063 102.985941 835.597324 15.571232L835.597324 15.571232 835.597324 15.571232Z"  horiz-adv-x="1024" />

    
    <glyph glyph-name="shoufaxinxi" unicode="&#59035;" d="M846.000492 727.210759 177.997462 727.210759c-66.471924 0-120.550587-54.078663-120.550587-120.550587l0-445.319322c0-66.471924 54.078663-120.55161 120.550587-120.55161l668.004053 0c66.471924 0 120.55161 54.079686 120.55161 120.55161L966.553125 606.660172C966.552102 673.132096 912.472416 727.210759 846.000492 727.210759zM511.999488 395.597129 177.238169 653.121344l669.521616 0L511.999488 395.597129zM417.864528 362.50443l94.275153-71.29272 90.092901 71.618131 234.904031-246.690472c-48.434106-0.278339-176.686095-0.460488-331.341431-0.460488-148.540058 0-272.002974 0.168846-319.133388 0.428765L417.864528 362.50443zM664.767847 410.719548 892.462686 587.828268l0-422.023756L664.767847 410.719548zM359.230106 410.719548 131.537314 165.805536 131.537314 587.828268 359.230106 410.719548z"  horiz-adv-x="1024" />

    
    <glyph glyph-name="tianjiasucai" unicode="&#58909;" d="M881.29024 483.05152a28.16 28.16 0 0 1-28.16-28.16v-111.06816c-53.1456 38.9888-118.13376 60.76416-185.78432 61.14816l-1.87392 0.00512c-105.81504 0-209.51552-50.47296-292.17792-142.2592-45.19936-50.18624-93.08672-76.47744-142.32576-78.13632-54.84544-1.95584-98.74432 27.41248-116.44416 41.42592V656.1792a15.83616 15.83616 0 0 0 15.8208 15.8208h509.35808a28.16 28.16 0 0 1 0 56.32H130.33984c-39.77728 0-72.1408-32.36352-72.1408-72.1408v-598.12352c0-39.77728 32.36352-72.13568 72.1408-72.13568h706.9696c39.7824 0 72.14592 32.3584 72.14592 72.13568V454.89152a28.17024 28.17024 0 0 1-28.16512 28.16z m-43.98592-440.81152H130.33984a15.83616 15.83616 0 0 0-15.8208 15.81568v100.49024c27.8016-15.50336 66.20672-30.36672 111.40096-30.36672 2.03264 0 4.08576 0.03072 6.14912 0.09216 65.41312 1.95584 127.01184 34.5088 183.07584 96.75776 71.84384 79.7696 160.68096 123.62752 250.3424 123.62752h1.55136c71.94624-0.40448 137.6-28.60032 186.10176-79.5392v-211.06176a15.85664 15.85664 0 0 0-15.83616-15.81568zM193.4336 438.48192c0-64.0256 52.09088-116.11648 116.1216-116.11648 64.0256 0 116.11648 52.09088 116.11648 116.11648S373.5808 554.5984 309.5552 554.5984c-64.03072 0-116.1216-52.09088-116.1216-116.11648z m175.91808 0c0-32.9728-26.82368-59.79648-59.79648-59.79648s-59.8016 26.82368-59.8016 59.79648S276.5824 498.2784 309.5552 498.2784c32.9728 0 59.79648-26.82368 59.79648-59.79648zM962.39616 684.12416H869.2224V777.29792c0 18.46784-13.5168 33.44384-30.1824 33.44384s-30.1824-14.976-30.1824-33.44384v-93.17376h-93.17376c-18.46784 0-33.44384-13.5168-33.44384-30.1824s14.976-30.1824 33.44384-30.1824h93.17376V530.5856c0-18.46784 13.5168-33.44384 30.1824-33.44384s30.1824 14.976 30.1824 33.44384V623.75936h93.17376c18.46784 0 33.44384 13.5168 33.44384 30.1824s-14.976 30.1824-33.44384 30.1824z"  horiz-adv-x="1024" />

    
    <glyph glyph-name="108fangxiang_xiangshang2" unicode="&#58929;" d="M470.016-80.896q-44.032 0-59.392 20.48t-15.36 65.536q0 20.48-0.512 64.512t-1.024 93.696-1.536 96.768-1.024 74.752q0 39.936-7.68 62.464t-35.328 21.504q-20.48 0-48.64 1.024t-49.664 0q-35.84 0-45.568 19.456t13.824 50.176q24.576 30.72 57.344 72.704t67.584 86.016 68.096 87.04 58.88 75.776q23.552 29.696 45.568 30.72t46.592-26.624q24.576-29.696 56.832-69.632t67.072-82.432 68.608-83.968 60.416-73.216q29.696-35.84 23.04-58.88t-43.52-23.04q-11.264 0-25.088-0.512t-29.184-1.024-30.208-1.024-27.136-0.512q-25.6-1.024-32.256-16.384t-5.632-41.984q0-29.696 0.512-77.824t1.024-100.352 1.536-101.376 1.024-79.872q0-13.312-2.048-27.648t-9.728-26.112-21.504-19.968-36.352-8.192q-27.648 0-52.736-0.512t-56.832-1.536z"  horiz-adv-x="1024" />

    
    <glyph glyph-name="110fangxiang_xiangxia2" unicode="&#58930;" d="M564.224 851.968q43.008 0 58.368-20.48t15.36-65.536q0-20.48 0.512-64.512t0.512-93.696 0.512-96.768 0.512-74.752q0-38.912 7.68-61.952t35.328-22.016q19.456 0 48.128-1.024t49.152-1.024q35.84 0 45.568-18.944T812.032 281.6q-24.576-30.72-57.344-72.704t-68.096-86.016-69.12-86.528-59.392-75.264q-23.552-29.696-45.568-30.72t-45.568 27.648q-24.576 29.696-57.344 69.632t-67.072 82.432-67.584 83.968-59.904 74.24q-29.696 35.84-22.528 58.88t44.032 23.04h24.576q14.336 0 29.696 0.512t30.208 1.536 26.112 1.024q26.624 0 32.768 15.36t6.144 41.984q0 29.696-0.512 77.824t-0.512 100.352-0.512 101.376-0.512 79.872q0 13.312 2.048 27.648t9.728 26.112 20.992 19.456 36.864 7.68q27.648 0 53.248 0.512t57.344 0.512z"  horiz-adv-x="1024" />

    
    <glyph glyph-name="109fangxiang_xiangyou2" unicode="&#58931;" d="M47.104 442.368q0 43.008 20.992 57.856t66.048 14.848q20.48 0 64.512-0.512t93.696-0.512 96.768-0.512 74.752-0.512q38.912-1.024 61.44 6.656t22.528 35.328q0 20.48 1.536 48.64t1.536 48.64q1.024 35.84 20.48 45.568t49.152-14.848q30.72-24.576 71.68-58.368t84.992-69.12 86.016-69.632 74.752-59.904q29.696-24.576 30.208-46.592t-28.16-45.568q-29.696-24.576-70.144-56.32t-83.968-65.536-85.504-67.072-74.752-58.88q-35.84-28.672-58.88-21.504t-22.016 44.032V162.816q0 15.36-0.512 30.208t-0.512 27.136q0 25.6-15.36 32.256t-41.984 6.656q-29.696 0-77.824 0.512t-100.352 0.512-101.376 0.512-79.872 0.512q-13.312 0-27.648 2.56t-26.112 9.728T54.272 294.4t-7.168 37.376q0 27.648-0.512 53.248t0.512 57.344z"  horiz-adv-x="1024" />

    
    <glyph glyph-name="111fangxiang_xiangzuo2" unicode="&#58932;" d="M966.656 328.704q0-43.008-20.48-58.368t-65.536-15.36h-64.512q-44.032 0-93.696-0.512t-96.768-0.512h-74.752q-38.912 0-61.952-7.68t-22.016-35.328q0-20.48-1.024-48.64t-1.024-49.664q0-35.84-19.456-45.568t-50.176 13.824q-30.72 24.576-72.704 57.856t-85.504 68.096-86.016 68.608-75.264 59.392q-30.72 24.576-31.232 46.592t28.16 45.568q28.672 24.576 68.608 56.832t82.944 66.56 84.48 68.096 74.24 60.416q35.84 28.672 58.88 22.016t23.04-43.52v-25.6q0-14.336 0.512-29.696t1.024-30.208 0.512-26.112q1.024-25.6 16.384-32.256t41.984-6.656q29.696 0 77.824 0.512t100.352 0.512 101.376 0.512 79.872 0.512q13.312 0 27.648-2.048t26.112-9.728 19.456-21.504 7.68-36.352q0-27.648 0.512-53.248t0.512-57.344z"  horiz-adv-x="1024" />

    
    <glyph glyph-name="fankui" unicode="&#58926;" d="M308.985327 431.638184c-25.454169 0-46.135681 20.681512-46.135681 46.135681 0 25.454169 20.681512 46.135681 46.135681 46.135681 25.454169 0 45.958916-20.681512 45.958916-46.135681 0-25.454169-20.504747-46.135681-45.958916-46.135681zM536.481961 431.638184c-25.454169 0-46.135681 20.681512-46.135681 46.135681 0 25.454169 20.681512 46.135681 46.135681 46.135681 25.454169 0 46.135681-20.681512 46.135681-46.135681 0-25.454169-20.681512-46.135681-46.135681-46.135681zM764.15536 431.638184c-25.454169 0-46.135681 20.681512-46.135681 46.135681 0 25.454169 20.681512 46.135681 46.135681 46.135681 25.454169 0 46.135681-20.681512 46.135681-46.135681 0-25.454169-20.681512-46.135681-46.135681-46.135681zM817.008113-122.873813c-1.767651 0.176765-7.954428 2.651476-13.434144 6.186777l-293.783532 156.790609H145.831176c-82.726049 0-139.290868 56.56482-139.290869 139.290869V749.638529C6.363542 832.364578 63.105127 888.929398 145.831176 888.929398h777.589504c82.726049 0 139.290868-56.56482 139.290868-139.290869v-570.244087c0-82.726049-56.56482-139.290868-139.290868-139.290869H813.119282l20.151217-133.280856c2.297946-16.615916 3.181771-23.156223-1.590886-28.28241-5.833247-2.828241-11.489729-2.121181-14.6715-1.41412zM128.684965 840.495771c-41.186259 0-74.594856-33.762127-74.594856-75.478681v-596.228552c0-41.539789 33.408597-75.478681 74.594856-75.478681h398.251683c12.196789 0 13.080615-3.535301 31.994476-14.31797l211.587778-118.786121s-24.040048 106.589332-15.201795 115.781115c5.479717 16.085621 31.640946 14.6715 44.72156 14.848265l139.821164 2.297946c41.89332 0 75.301916 33.938892 75.301916 75.478681V765.01709c0 41.539789-33.408597 75.478681-74.594856 75.478681H128.684965z"  horiz-adv-x="1068" />

    
    <glyph glyph-name="gongxiang" unicode="&#59057;" d="M703.743 263.762c-35.56 0-68.274-12.188-94.195-32.608L489.24 332.682c7.367 17.877 11.438 37.452 11.438 57.986 0 24.771-5.918 48.154-16.41 68.83l101.392 94.52c16.777-7.138 35.228-11.087 54.606-11.087 77.103 0 139.592 62.488 139.592 139.58 0 77.1-62.495 139.587-139.592 139.587-77.099 0-139.593-62.488-139.593-139.586 0-15.388 2.499-30.192 7.1-44.033L396.84 535.064c-15.214 5.099-31.498 7.867-48.433 7.867-84.105 0-152.268-68.159-152.268-152.263 0-84.106 68.163-152.263 152.268-152.263 21.286 0 41.548 4.37 59.938 12.253l144.102-121.602a153.663 153.663 0 0 1-1.013-17.551c0-84.11 68.205-152.268 152.309-152.268 84.07 0 152.268 68.162 152.268 152.268 0 84.1-68.2 152.257-152.268 152.257z m0 0"  horiz-adv-x="1024" />

    
    <glyph glyph-name="xin" unicode="&#58939;" d="M714.752 789.504c-78.848 0-153.088-35.328-202.752-92.672-49.664 57.344-123.904 92.672-202.752 92.672C169.472 789.504 61.44 683.52 61.44 546.304c0-167.936 153.088-302.592 385.024-510.464l65.536-57.344 65.536 57.344c231.936 207.872 385.024 342.528 385.024 510.464 0 137.216-108.032 243.2-247.808 243.2z"  horiz-adv-x="1024" />

    
    <glyph glyph-name="gou" unicode="&#59098;" d="M440.3712 161.408a25.4976 25.4976 0 0 0-17.2032 6.656l-184.064 167.2448a25.6 25.6 0 1 0 34.4064 37.888l164.8384-149.7856 310.7584 352.5376a25.6 25.6 0 1 0 38.4-33.8432l-327.936-372.0448a25.6 25.6 0 0 0-17.792-8.6272l-1.408-0.0256z"  horiz-adv-x="1024" />

    
    <glyph glyph-name="bangzhuzhongxin" unicode="&#59270;" d="M383.948616 37.146609c2.715986-23.915355 3.479398-29.809778 5.431972-40.603985 11.381448-62.46767 39.902968-89.902796 121.701849-89.902796 81.986065 0 110.320401 27.339699 121.591742 89.979871 1.90853 10.592344 2.63891 16.424373 5.307183 39.869935 6.132989 53.960029 12.295341 75.108014 38.596358 91.451642 91.28648 56.778781 153.075154 167.033118 153.075155 277.423254 0 173.723986-142.515842 314.790079-318.570438 314.790079-176.050925 0-318.570437-141.066093-318.570437-314.790079 0-111.722437 61.072975-221.066552 152.902652-277.313146 26.301018-16.112401 32.419326-37.098896 38.537635-90.904775zM161.773649 405.36453c0 190.963154 156.396731 345.759656 349.308788 345.759656 192.908387 0 349.308789-154.800172 349.308789-345.759656 0-123.46724-69.320029-242.588903-167.668072-303.775655-53.761835-33.424975 26.455168-225.918624-181.640717-225.918624s-128.29729 193.260731-181.640717 225.918624c-99.482151 60.937176-167.668072 179.464258-167.668071 303.775655zM758.982194 251.4599a291.205047 291.205047 0 0 1 39.308387 146.663225c0 89.888115-35.968459 170.644645-98.986667 230.675269a7.722208 7.722208 0 0 1-10.97405-0.315641 7.865348 7.865348 0 0 1 0.308301-11.058466c59.9719-57.134796 94.127254-133.791656 94.127254-219.297491 0-49.489663-12.963326-97.023082-37.179641-138.772187a275.173391 275.173391 0 0 0-65.23504-76.010896 7.869018 7.869018 0 0 1-1.218523-11.003412c2.679283-3.376631 7.568057-3.927168 10.918996-1.229534a290.782968 290.782968 0 0 1 68.930983 80.349133z m-91.095628-156.81514l-15.525161-15.642609 15.525161 15.642609h-71.415742 71.412072z m-71.415742-15.642609c-8.577376 0-15.525161 7.002839-15.525161 15.642609 0 8.6361 6.947785 15.638939 15.525161 15.638939h71.412072v-31.281548h-71.412072z m-248.39891 0v31.281548h201.823427c7.762581 0 15.525161-7.817634 15.525161-15.638939 0-7.821305-7.762581-15.642609-15.525161-15.642609H348.071914zM497.109792 876.844961A15.473778 15.473778 0 0 0 512.634953 892.329749c8.514982 0 15.440746-6.907412 15.525162-15.484788V813.969892a15.473778 15.473778 0 0 0-15.525162-15.488458c-8.514982 0-15.440746 6.911082-15.525161 15.488458V876.84129z m337.820903-128.42575a15.35633 15.35633 0 0 0 10.952029 4.52175 15.36 15.36 0 0 0 10.907986-4.631857 15.723355 15.723355 0 0 0 0.091756-22.021505L812.777061 681.848201a15.35633 15.35633 0 0 0-10.952029-4.521749 15.36 15.36 0 0 0-10.907985 4.631856 15.723355 15.723355 0 0 0-0.091757 22.006825l44.105405 44.468759v-0.014681z m156.022366-325.096143c8.47828 0 15.371011-6.947785 15.371011-15.642609 0-8.577376-6.856029-15.554523-15.367341-15.64261h-62.412616a15.36 15.36 0 0 0-10.907986 4.606165 15.591226 15.591226 0 0 0-4.459355 11.036445c0 8.577376 6.856029 15.554523 15.367341 15.642609h62.412616zM34.316846 392.037849a15.36 15.36 0 0 0-10.911656 4.606165 15.591226 15.591226 0 0 0-4.459355 11.036445c0 8.577376 6.856029 15.554523 15.371011 15.642609h62.408946c8.47828 0 15.367341-6.947785 15.367341-15.642609 0-8.577376-6.856029-15.554523-15.367341-15.64261H34.316846z m134.070595 334.24975a15.591226 15.591226 0 0 0-4.496057 11.029104 15.587556 15.587556 0 0 0 4.587813 10.992401 15.444416 15.444416 0 0 0 21.860014 0.124788l44.105405-44.450408a15.591226 15.591226 0 0 0 4.492388-11.025434 15.587556 15.587556 0 0 0-4.587814-10.981391 15.444416 15.444416 0 0 0-21.856344-0.110107L168.391111 726.30228v-0.014681z"  horiz-adv-x="1024" />

    
    <glyph glyph-name="shangchuan" unicode="&#58898;" d="M64 63.3V-64h896V62.3zM745 599.5H627.8v-389.9H397.6V599.5H280L512.5 832z"  horiz-adv-x="1024" />

    
    <glyph glyph-name="weiduyoujian" unicode="&#58888;" d="M597.652645 443.60671l20.199226 13.989161c4.839226 3.402323 9.612387 6.854194 14.352516 10.273032l5.136516 3.683097 11.379613 8.125935 59.60671 41.851871c6.226581 4.459355 12.420129 8.902194 18.646709 13.262452 9.133419 6.35871 18.200774 12.717419 27.35071 19.059613l34.716903 24.311742c5.995355 4.211613 12.007226 8.423226 18.068646 12.535742 11.776 7.878194 16.483097 15.244387 15.706838 24.576-0.743226 10.074839-6.391742 17.143742-16.780387 21.025032-10.388645 3.79871-20.612129 2.906839-29.415226-2.642581-4.508903-2.807742-8.770065-5.912774-13.39458-9.232516L489.240774 431.285677a6.788129 6.788129 0 0 0-8.324129-0.099096 587.528258 587.528258 0 0 1-10.124387 7.316645l-39.589161 28.143484c-10.124387 7.168-20.26529 14.253419-30.488774 21.338838l-177.284129 124.795871a1432.691613 1432.691613 0 0 0-24.708129 17.424516c-5.169548 3.782194-12.205419 8.076387-20.380904 8.076388-0.660645 0-1.32129-0.016516-1.684645-0.066065l-2.411355 0.049548c-8.968258 0-17.374968-4.162065-22.528-11.131871-4.343742-5.863226-5.665032-12.717419-3.716129-19.224774 2.510452-8.40671 9.810581-13.510194 16.912516-18.481548l115.315613-81.176774 1.767226-1.288258c5.549419-3.897806 11.032774-7.861677 16.549161-11.726452 4.541935-3.204129 9.067355-6.342194 13.609291-9.496774l4.327226-3.022452c5.615484-3.831742 11.164903-7.713032 16.68129-11.577806l1.32129-0.924903c5.219097-3.716129 10.45471-7.432258 15.673807-11.197936 5.070452-3.650065 10.124387-7.250581 15.260903-10.834581 5.863226-4.195097 11.809032-8.357161 17.672258-12.453161l24.87329-17.391484c5.285161-3.699613 10.586839-7.432258 15.872-11.214451l34.799484-24.609033c7.613935-5.285161 15.260903-10.619871 22.792258-16.16929a7.316645 7.316645 0 0 1 3.237161-1.486452l0.181678-0.033032h0.165161c1.073548 0.033032 2.279226 0.545032 3.897807 1.767226 6.292645 4.773161 12.8 9.315097 19.422967 13.906581l54.305033 38.366967c6.424774 4.608 12.833032 9.199484 19.290838 13.708387 5.202581 3.732645 10.421677 7.366194 15.723355 11.032775z m-62.067613-298.363871l-1.453419 4.39329h-40.712258c-114.027355 0-227.955613 0-341.916903 0.198194-39.20929 0.033032-72.505806 27.284645-80.978581 66.229677a82.580645 82.580645 0 0 0-1.354323 17.094194l-0.066064 84.199225c-0.033032 112.111484-0.033032 184.121806 0.132129 319.900904 0.066065 20.958968 7.878194 39.556129 23.287742 55.262967 16.747355 17.077677 37.970581 25.748645 63.289806 25.748645 47.104-0.099097 94.174968-0.132129 141.295484-0.132129l512.066065 0.066065c17.457548-0.033032 34.188387-5.813677 49.74658-17.19329 15.227871-11.131871 25.319226-27.003871 30.736516-48.491355 1.288258-5.037419 1.486452-10.157419 1.486452-14.930581l0.066065-174.790193 3.550967-1.767226c13.543226-6.771613 26.607484-14.831484 38.895484-23.997936l10.124387-7.547871v12.651355c0 58.07071-0.099097 117.76-0.231226 198.887226-0.033032 11.676903-1.156129 21.520516-3.584 30.092387-7.960774 28.738065-23.452903 52.224-45.997419 69.84671-25.121032 19.687226-54.519742 29.679484-87.221677 29.679484l-305.449291 0.08258-320.264258-0.066064c-8.225032 0-16.565677-0.29729-25.500903-0.578065l-13.824-0.478967c-21.900387-0.660645-42.991484-7.630452-64.512-21.289291-18.481548-11.809032-33.098323-26.937806-43.420903-44.940387C22.329806 683.272258 16.516129 662.528 16.516129 641.701161l0.066065-418.353548c0-5.995355 0.379871-10.801548 1.222193-15.095742 7.201032-37.541161 27.069935-67.253677 58.995613-88.328258a130.081032 130.081032 0 0 1 72.869161-21.702194h406.709678l-4.872258 9.348129a266.851097 266.851097 0 0 0-15.921549 37.673291z m249.971613 298.595096c-122.417548 0-221.943742-100.170323-221.943742-223.281548 0-123.127742 99.509677-223.298065 221.943742-223.298064 122.384516 0 221.943742 100.153806 221.943742 223.298064-0.016516 123.111226-99.559226 223.281548-221.943742 223.281548z m0-402.233806c-98.039742 0-177.87871 80.251871-177.87871 178.968774 0 98.650839 79.838968 178.919226 177.87871 178.919226 98.072774 0 177.87871-80.268387 177.87871-178.919226-0.016516-98.716903-79.822452-178.968774-177.87871-178.968774z m30.703484 188.449032h65.040516v24.394323h-81.292387v26.194581l71.845161 0.099096 0.578065 24.295226h-72.423226l-0.165161 33.412129h-27.846194v-33.412129h-66.840774v-24.394322h66.840774v-26.194581h-82.200774v-24.394323h65.040516c-20.48-28.903226-45.766194-49.994323-75.875097-63.223742 4.806194-4.839226 12.651355-12.056774 23.485936-21.685677 30.092387 19.257806 53.297548 40.035097 69.549419 62.315355v-80.384h27.994839v80.384c14.451613-25.286194 38.845935-45.485419 73.166452-60.515097 3.617032 5.41729 8.704 12.932129 15.36 22.577548 3.005935 3.617032 4.508903 5.714581 4.508903 6.325678-36.120774 12.040258-61.73729 30.108903-76.766968 54.205935z"  horiz-adv-x="1024" />

    
    <glyph glyph-name="bianji1" unicode="&#58912;" d="M781.129 0.5H243.361C180.298 0.5 129 51.798 129 114.861V652.619C129 715.681 180.298 767 243.361 767h391.363c11.372 0 20.592-9.21 20.592-20.592 0-11.382-9.22-20.592-20.592-20.592H243.361c-40.349 0-73.178-32.838-73.178-73.197v-537.758c0-40.359 32.829-73.177 73.178-73.177h537.768c40.359 0 73.187 32.818 73.187 73.177V516.762c0 11.381 9.22 20.591 20.592 20.591 11.372 0 20.592-9.21 20.592-20.591v-401.901c0-63.063-51.309-114.361-114.371-114.361M418.541 305.817c-8.044 8.043-8.044 21.074 0 29.118L824.725 741.12c8.044 8.044 21.075 8.044 29.118 0 8.044-8.044 8.044-21.074 0-29.118L447.66 305.817a20.524 20.524 0 0 0-14.559-6.033 20.524 20.524 0 0 0-14.559 6.033z"  horiz-adv-x="1024" />

    
    <glyph glyph-name="lixian" unicode="&#58893;" d="M519.584 819.2c-240.352 0-435.2-194.848-435.2-435.2 0-240.352 194.848-435.2 435.2-435.2 240.352 0 435.2 194.848 435.2 435.2 0 240.352-194.848 435.2-435.2 435.2z m0 76.8c282.784 0 512-229.216 512-512s-229.216-512-512-512-512 229.216-512 512 229.216 512 512 512zM556.576 655.552a38.4 38.4 0 1 1-76.8 0.64l-2.656-302.656a38.4 38.4 0 0 1 38.4-38.72h218.752a38.4 38.4 0 1 1 0 76.8H554.24l2.336 263.936z"  horiz-adv-x="1056" />

    
    <glyph glyph-name="shangchuan1" unicode="&#58892;" d="M913.45 214.915c-24.182 0-40.309-16.124-40.309-40.31v-193.482h-725.557v201.543c0 24.187-16.124 40.31-40.309 40.31s-40.309-16.124-40.309-40.31v-241.852c0-24.187 16.124-40.31 40.309-40.31h806.176c24.187 0 40.31 16.124 40.31 40.31v233.793c-0.001 24.187-16.125 40.309-40.31 40.309zM260.448 513.2l209.605 209.605v-548.198c0-24.182 16.124-40.309 40.309-40.309s40.31 16.124 40.31 40.309v548.198l209.605-209.605c16.123-16.124 40.309-16.124 56.433 0s16.124 40.309 0 56.433l-282.162 282.162s-8.062 8.062-16.124 8.062c-8.062 8.062-24.187 8.062-32.246 0-8.062 0-8.062-8.062-16.124-8.062l-282.163-282.162c-16.124-16.124-16.124-40.309 0-56.433 24.187-8.062 56.433-8.062 72.557 0z"  horiz-adv-x="1024" />

    
    <glyph glyph-name="tianjia" unicode="&#58933;" d="M511.9 384.2zM511.9 384.2zM224.7 406.4v-44.1h264.9v-265.6h44.8V361.6h264.9v44.8H534.4V671.3h-44.8v-264.9H224.7zM886.2 832.1H138c-40.8 0-74-33.2-74-74v-747.6c0-60.3 22.7-74 74-74h748.2c50 0 74 16.6 74 74V758.1c0 40.8-33.2 74-74 74z m43.4-198.5V-1c0-16.3-8.6-27.5-29.8-29.3H138.5c-35.2 0-43.9 3.8-43.9 43.9V751.8c0 24.2 19.7 43.9 43.9 43.9h747.2c24.2 0 43.9-19.7 43.9-43.9v-118.2z"  horiz-adv-x="1024" />

    
    <glyph glyph-name="cha" unicode="&#58940;" d="M588.701 396.452l207.63 207.63c23.394 23.394 23.394 58.495 0 81.884s-58.495 23.394-81.884 0l-207.63-207.63-207.63 207.63c-23.394 23.394-58.495 23.394-81.884 0s-23.394-58.495 0-81.884l207.63-207.63-207.63-207.63c-23.394-23.394-23.394-58.495 0-81.884 11.705-11.705 26.326-17.55 40.947-17.55s29.238 5.847 40.947 17.55l207.63 207.63 207.63-207.63c11.705-11.705 26.326-17.55 40.947-17.55s29.238 5.847 40.947 17.55c23.394 23.394 23.394 58.495 0 81.884l-207.63 207.63z"  horiz-adv-x="1024" />

    
    <glyph glyph-name="tuijian1" unicode="&#59159;" d="M852.984045-60.280666H172.039261c-56.729026 0-102.878089 46.150086-102.878088 102.877066V723.547323c0 56.729026 46.150086 102.878089 102.878088 102.878089h680.9499c56.729026 0 102.878089-46.150086 102.878089-102.878089v-680.950923c-0.001023-56.726979-46.15111-102.877065-102.880135-102.877066h-0.00307zM172.037215 787.566382c-35.300994 0-64.018036-28.719088-64.018036-64.018036v-680.950923c0-35.299971 28.719088-64.017012 64.018036-64.017013h680.944783c35.300994 0 64.018036 28.719088 64.018036 64.017013l0.001023 680.950923c0 35.300994-28.719088 64.018036-64.018035 64.018036H172.033122h0.004093zM843.960531 477.227288v48.635697H437.465446a2005.143936 2005.143936 0 0 1 15.978927 31.966039H398.551158a1053.404704 1053.404704 0 0 0-16.324803-31.966039h-190.048428v-48.635697h162.602332c-51.421136-85.469604-112.570845-156.810419-183.446056-214.018352 9.262968-12.509918 20.150946-28.027333 32.658818-46.557362 35.199687 29.64825 68.789713 63.809281 100.757798 102.496396v-274.82116h52.804646V389.674233c18.757203 27.321252 36.830837 56.509015 54.20453 87.549985l432.201559 0.001023-0.001023 0.002047zM673.025417 721.817935h-52.81181v-62.541404h-193.169511v61.845556H374.237403v-61.845556H190.794417v-48.634674H374.237403v-43.084261h52.806693v43.084261h193.170534v-50.726312h52.81181v50.726312h180.664709v48.634674h-180.664709v62.541404zM670.940942 282.658917l134.800126 85.475744v47.249117H446.497147v-47.249117h273.079492l-101.449553-65.316612v-34.051537H408.972509v-48.635697h209.1556v-84.082c0-25.936719-12.046361-38.907125-36.133965-38.907125-35.20992 0-74.114998 1.850138-116.734678 5.557576 3.704368-19.918655 6.719028-38.680974 9.036817-56.280818 51.417043-0.463558 91.718935-0.697895 120.905674-0.697895 50.491974 0 75.740008 27.338648 75.740008 81.996503v92.413759h182.749184v48.635697H670.940942v13.892405z"  horiz-adv-x="1024" />

    
    <glyph glyph-name="tongxinlu" unicode="&#59326;" d="M768 608zM820 768H704V820c0 6.627-5.373 12-12 12h-40c-6.627 0-12-5.373-12-12v-52h-96V820c0 6.627-5.373 12-12 12h-40c-6.627 0-12-5.373-12-12v-52h-96V820c0 6.627-5.373 12-12 12h-40c-6.627 0-12-5.373-12-12v-52H204c-6.627 0-12-5.373-12-12v-808c0-6.627 5.373-12 12-12h616c6.627 0 12 5.373 12 12V756c0 6.627-5.373 12-12 12zM704 140c0-6.627-4.029-12-9-12H329c-4.971 0-9 5.373-9 12v40c0 6.627 4.029 12 9 12h366c4.971 0 9-5.373 9-12v-40z m0 192c0-6.627-4.029-12-9-12H329c-4.971 0-9 5.373-9 12v40c0 6.627 4.029 12 9 12h366c4.971 0 9-5.373 9-12v-40z m0 192c0-6.627-4.029-12-9-12H329c-4.971 0-9 5.373-9 12v40c0 6.627 4.029 12 9 12h366c4.971 0 9-5.373 9-12v-40z"  horiz-adv-x="1024" />

    
    <glyph glyph-name="user-fill" unicode="&#58882;" d="M538.048 834q26.048 0 51.646-5.839t48.054-15.718 39.97-22.455 27.396-25.15q23.352-28.742 34.132-63.323t15.269-66.017q4.492-35.929 4.492-72.755 6.288-4.492 9.879-11.677 3.593-6.288 5.839-16.167t0.449-24.251q-1.796-18.863-7.634-30.090t-13.025-17.514q-8.083-7.186-17.065-9.879-4.492-15.27-8.982-28.743-4.492-11.677-10.328-22.904t-13.025-17.515q-17.066-13.474-27.845-22.904t-14.371-31.887q-2.694-13.473-1.796-27.395t7.634-27.844 20.659-26.498 39.072-22.456q22.456-8.981 48.953-16.166t51.647-16.617 44.46-23.352 27.396-38.174q4.492-14.37 6.737-35.479t2.245-42.665-3.143-40.419-9.43-28.742q-4.492-6.288-25.6-12.576t-52.095-12.126-69.161-10.329-76.797-7.634-74.102-4.941-61.527-1.796-60.629 1.796-71.407 4.94-73.204 7.186-66.017 8.533-50.3 8.982-26.047 8.981q-8.982 7.186-13.922 44.012t4.042 95.21q4.492 33.234 26.498 50.748t51.197 27.845 60.629 18.413 55.689 23.353q18.862 11.677 28.742 22.456t14.372 21.556 4.492 22.456-0.899 26.047q-1.795 20.659-14.37 32.784t-27.845 24.7q-7.185 6.288-12.575 17.514t-9.879 22.904q-4.492 13.474-8.982 28.743-6.288 1.796-12.575 6.287-5.39 4.492-11.677 12.576t-10.778 23.352q-5.39 15.27-4.043 27.845t4.942 21.557q3.593 9.88 11.677 18.863-0.898 34.133 3.593 68.264 3.592 28.742 13.024 61.976t28.294 59.281q17.065 25.15 38.173 40.868t43.114 24.7 44.012 12.126 42.665 3.143z"  horiz-adv-x="1024" />

    
    <glyph glyph-name="hua" unicode="&#58886;" d="M498.56 234.24c-8.32-1.28-57.6-50.56-74.24-43.52-14.08 5.76 8.32 56.96-3.84 73.6-12.16 16.64-106.24-0.64-141.44-17.28-34.56-16.64-91.52-62.72-111.36-124.16-19.2-60.16-17.28-125.44 17.28-154.88 34.56-29.44 85.76-3.2 85.76-3.2s0.64-72.96 47.36-83.2c46.08-10.24 137.6 14.72 183.04 87.04 45.44 71.68 33.92 185.6 25.6 222.72-8.32 37.76-19.84 44.8-28.16 42.88zM904.32 256c-58.88 49.92-243.2 89.6-270.72 70.4-28.16-19.2 16.64-65.92 2.56-73.6-13.44-8.32-49.28 31.36-62.72 26.24-13.44-5.76-32.64-115.84-6.4-183.68 26.24-68.48 124.16-172.16 190.72-142.08 66.56 30.08 57.6 83.84 57.6 83.84s90.24-20.48 123.52 35.84c33.92 55.04 11.52 143.36-34.56 183.04zM590.08 459.52c11.52-8.96 56.32 10.88 67.2-0.64 10.88-11.52-58.24-46.72-37.12-72.96 21.12-25.6 191.36-42.88 263.68-14.72 64.64 24.96 122.88 88.32 111.36 165.12-10.24 64-101.76 80.64-101.76 80.64s23.04 69.76-30.72 96.64c-94.72 47.36-163.84-30.72-208-101.76-39.04-62.72-76.16-143.36-64.64-152.32zM520.96 883.84C455.68 899.84 405.76 812.8 405.76 812.8s-65.28 11.52-108.16-28.8C245.12 735.36 256 664.32 307.2 597.76c45.44-58.88 118.4-107.52 131.2-101.12s11.52 54.4 26.24 58.88c15.36 5.12 23.04-69.12 55.68-60.8s115.2 152.32 115.84 227.2c1.92 66.56-36.48 142.72-115.2 161.92zM224.64 257.28c72.96 21.12 163.84 48 164.48 73.6 0.64 24.32-76.8 38.4-69.76 67.84 3.84 14.72 78.72 3.2 83.84 35.2 4.48 24.32-53.12 92.16-127.36 128.64-62.08 30.72-163.2 48-207.36-16.64-37.12-54.4 0.64-113.92 0.64-113.92S4.48 381.44 22.4 326.4c21.12-66.56 119.04-92.8 202.24-69.12z"  horiz-adv-x="1024" />

    
    <glyph glyph-name="cuijiao" unicode="&#58921;" d="M831.098833 191.350827c-1.753961 2.923934-5.259882 7.599829-63.710569 64.922542V379.688597c0.583987 7.018842 0.583987 13.452698 0.583987 19.886553 0 66.679502-21.626514 131.019057-61.957609 185.414836A337.329423 337.329423 0 0 1 566.898767 694.366529a159.996406 159.996406 0 0 1-46.176963 67.847476 149.987631 149.987631 0 0 1-96.443834 35.679199c-35.070212 0-68.970451-12.866711-96.443833-35.679199a159.996406 159.996406 0 0 1-46.175963-67.847476C226.133421 670.385068 178.207497 632.951908 142.548298 584.989986c-40.330094-54.398778-61.956608-118.735333-61.956608-185.414836a142.842792 142.842792 0 0 1 0.583987-15.792645v-127.509136c-58.450687-57.318713-61.957608-62.583594-63.710569-64.922542-8.767803-12.283724-11.105751-26.906396-11.689738-32.170277v-125.753176c0.584987-7.604829 3.506921-22.227501 19.288567-38.019146 10.520764-10.528764 25.718422-16.377632 41.499068-16.377632a41.299072 41.299072 0 0 1 8.767803 0.585987h212.761221c14.027685-61.415621 69.555438-107.623583 136.188941-107.623583s122.163256 46.207962 136.190941 107.627583h212.761221a38.606133 38.606133 0 0 1 8.767804-0.585987c16.364632 0 30.977304 5.848869 41.499067 16.377632 15.781646 15.791645 18.70458 30.414317 19.288567 38.019146V159.18055c-0.583987 5.848869-2.921934 19.886553-11.689737 32.170277zM424.28097-57.818576c-26.886396 0-50.851858 15.208658-61.957608 37.435159h123.916217c-11.105751-22.226501-34.485225-37.435159-61.958609-37.435159z m343.692281 111.71749H80.009703V149.81676c10.521764 11.11375 39.16212 39.18812 64.298556 63.755568l11.09975 11.11275V386.123452c0 4.093908-0.583987 8.772803-0.583986 12.867711 0 102.941688 66.633503 194.186638 170.096179 232.204785l19.289567 7.018842 4.090908 19.887553c8.183816 38.019146 39.16312 64.339555 75.398306 64.339555s67.21849-26.320409 75.398307-64.339555l4.090908-19.887553 19.289567-7.018842c103.457676-38.018146 170.096179-128.67811 170.096179-232.204785a142.496799 142.496799 0 0 0-0.584987-15.792645v-158.50844l11.106751-11.11275c25.717422-25.151435 53.773792-52.641818 64.298556-63.755568v-95.922846h0.583986z m-82.416149 717.673881c-19.289567 7.599829-40.916081-1.168974-48.514911-20.47154s1.168974-40.94308 20.458541-48.54691c0.582987 0 70.724411-30.414317 107.548584-86.566056 27.392385-42.573044 40.838083-87.475035 40.915081-138.180896 0.026999-17.904598 12.579717-33.720243 30.138323-37.162165 23.550471-4.615896 44.679996 13.865689 44.679997 36.722175 0 64.924542-17.535606 125.169189-52.605819 179.563967-50.851858 76.037292-139.113875 112.886464-142.619796 114.641425z m320.892792-191.847691c-12.272724 49.715883-34.483225 101.773714-68.969451 152.659571C847.465465 865.74268 729.979104 892.647075 724.719222 894.400036a36.93817 36.93817 0 0 1-46.176963-25.151435 36.97017 36.97017 0 0 1 25.133436-46.203962c1.168974-0.584987 115.733401-43.868015 171.261153-131.019058 54.058786-84.341106 68.809454-178.51599 68.971451-214.070191 0.081998-18.199591 12.874711-34.232231 30.778309-37.43016 23.290477-4.159907 44.042011 14.192681 44.04201 36.842173-0.589987 26.905396-1.75996 60.830634-12.279724 102.357701z"  horiz-adv-x="1024" />

    
    <glyph glyph-name="xiazai" unicode="&#58948;" d="M944.387-33.488H82.071c-44.571 0-80.842 36.271-80.842 80.842V155.143c0 14.875 12.072 26.947 26.947 26.947s26.947-12.072 26.947-26.947v-107.789c0-14.875 12.072-26.947 26.947-26.947h862.316c14.875 0 26.947 12.072 26.947 26.947V155.143c0 14.875 12.072 26.947 26.947 26.947s26.947-12.072 26.947-26.947v-107.789c0.002-44.571-36.269-80.842-80.84-80.842zM801.781 405.551L532.308 136.078c-10.509-10.509-27.595-10.509-38.104 0L224.73 405.551c-10.509 10.509-10.509 27.595 0 38.104s27.595 10.509 38.104 0l223.447-223.447V774.946c0 14.875 12.072 26.947 26.947 26.947s26.947-12.072 26.947-26.947v-554.738l223.447 223.447c5.282 5.282 12.18 7.868 19.079 7.868a27.07 27.07 0 0 0 19.079-7.868c10.511-10.509 10.511-27.594 0.001-38.104z"  horiz-adv-x="1025" />

    
    <glyph glyph-name="tianjiadaogerensucaiku" unicode="&#58884;" d="M355.968 794.24H97.216A64.64 64.64 0 0 1 32.64 729.6v-258.752c0-35.712 28.928-64.64 64.64-64.64h258.752a64.64 64.64 0 0 1 64.64 64.64V729.6a64.64 64.64 0 0 1-64.64 64.64z m0-323.392H97.216V729.6h258.752v-258.752z m0-194.048H97.216a64.64 64.64 0 0 1-64.64-64.64v-258.752c0-35.712 28.928-64.64 64.64-64.64h258.752a64.64 64.64 0 0 1 64.64 64.64v258.752a64.64 64.64 0 0 1-64.64 64.64z m0-323.392H97.216v258.752h258.752v-258.752z m616.768 692.544L789.76 828.928a64.64 64.64 0 0 1-91.456 0L515.392 645.952a64.64 64.64 0 0 1 0-91.456l182.912-182.976a64.64 64.64 0 0 1 91.52 0l182.912 182.976a64.64 64.64 0 0 1 0 91.52zM744.064 417.28L561.088 600.3199999999999l182.976 182.912 182.912-182.912-182.912-182.976z m146.432-322.688c14.656 0 26.176-12.16 26.176-26.496 0-14.848-11.52-26.496-26.24-26.496H764.8v-127.168c0-14.848-11.52-26.496-26.24-26.496a26.112 26.112 0 0 0-26.112 26.496V41.60000000000002H586.752a26.112 26.112 0 0 0-26.24 26.496c0 14.848 11.52 26.496 26.24 26.496h125.696v127.232a26.112 26.112 0 1 0 52.352 0v-127.232h125.696z"  horiz-adv-x="1024" />

    
    <glyph glyph-name="fasong1" unicode="&#59286;" d="M512-126.293333C230.4-126.293333 0 102.4 0 384S230.4 894.293333 512 894.293333 1024 665.6 1024 384 793.6-126.293333 512-126.293333z m0 952.32C267.946667 826.026667 68.266667 628.053333 68.266667 384c0-244.053333 199.68-442.026667 443.733333-442.026667S955.733333 139.946667 955.733333 384C955.733333 628.053333 756.053333 826.026667 512 826.026667zM244.053333 409.6l244.053334 244.053333c6.826667 6.826667 15.36 10.24 23.893333 10.24s17.066667-3.413333 23.893333-10.24l244.053334-244.053333c13.653333-13.653333 13.653333-34.133333 0-47.786667-13.653333-13.653333-34.133333-13.653333-47.786667 0L546.133333 547.84v-409.6c0-18.773333-15.36-34.133333-34.133333-34.133333s-34.133333 15.36-34.133333 34.133333v409.6l-186.026667-187.733333c-13.653333-13.653333-34.133333-13.653333-47.786667 0-13.653333 13.653333-13.653333 35.84 0 49.493333z"  horiz-adv-x="1024" />

    
    <glyph glyph-name="shoucang" unicode="&#58935;" d="M517.802667 25.941333l-7.168-7.168L143.701333 387.413333c-38.570667 39.936-62.122667 94.549333-62.122666 154.282667 0 123.221333 100.010667 223.232 223.232 223.232 92.842667 0 172.373333-56.661333 205.824-137.216 33.792 80.554667 112.981333 137.216 205.824 137.216 123.221333 0 222.890667-100.010667 222.890666-223.232 0-24.234667-4.096-47.786667-11.264-69.632h38.912c6.144 22.528 9.557333 45.738667 9.557334 69.632 0 143.701333-116.736 260.437333-260.437334 260.437333-81.92 0-157.354667-38.229333-205.824-101.034666a259.720533 259.720533 0 0 1-205.824 101.034666c-143.36 0-260.096-116.736-260.096-260.437333 0-67.584 25.941333-131.413333 72.704-180.224l367.274667-368.981333 26.282667-26.624 7.168 7.168v52.906666zM799.744 361.130667v-149.162667H948.906667v-34.133333h-149.162667v-149.845334h-34.474667v149.845334h-149.504v34.133333h149.504v149.162667z"  horiz-adv-x="1024" />

    
    <glyph glyph-name="fankui1" unicode="&#58936;" d="M180.2616225185185-93.03426844444436c-53.59388444444445 0-97.24571496296295 43.72950281481481-97.24571496296295 97.24571496296295V707.4564171851852c0 53.59388444444445 43.65183051851852 97.24571496296295 97.24571496296295 97.24571496296295h492.2093416296296a26.874614518518516 26.874614518518516 0 1 0 0-53.82690133333333H180.2616225185185a43.496485925925924 43.496485925925924 0 0 1-43.41881362962963-43.41881362962963v-703.322642962963a43.496485925925924 43.496485925925924 0 0 1 43.41881362962963-43.41881362962963h632.8738702222222a43.496485925925924 43.496485925925924 0 0 1 43.41881362962963 43.41881362962963V567.0249054814815a26.874614518518516 26.874614518518516 0 0 0 53.82690133333333 0v-562.580442074074c0.15534459259259262-26.097891555555552-9.942053925925928-50.48699259259259-28.350388148148145-68.89532681481481-18.330661925925924-18.48600651851852-42.71976296296296-28.66107733333333-68.66230992592592-28.66107733333333H180.2616225185185v0.07767229629629631zM250.55505066666677 258.8212337777777a26.874614518518516 26.874614518518516 0 0 0 0 53.904573629629624h421.91591348148154a26.952286814814812 26.952286814814812 0 0 0 0.23301688888888888-53.904573629629624H250.55505066666677zM606.7602014814815 469.77919051851853a26.874614518518516 26.874614518518516 0 0 0-27.029959111111108 27.029959111111108 27.185303703703703 27.185303703703703 0 0 0 7.844901925925925 19.029712592592592l349.60300562962965 349.3699887407408a26.64159762962963 26.64159762962963 0 0 0 38.059425185185184 0 26.71926992592592 26.71926992592592 0 0 0 0-38.059425185185184l-349.60300562962965-349.5253333333333a26.408580740740742 26.408580740740742 0 0 0-18.874368-7.844901925925925z m-356.2051508148149 0a26.874614518518516 26.874614518518516 0 0 0 0 53.82690133333333H461.51300740740743a26.952286814814812 26.952286814814812 0 1 0 0-53.82690133333333H250.55505066666677z"  horiz-adv-x="1024" />

    
    <glyph glyph-name="tianjia1" unicode="&#59450;" d="M724.401 135.583V358.954a30.1 30.1 0 1 0 60.2 0v-223.371h196.332a30.1 30.1 0 1 0 0-60.2H784.601v-145.635a30.1 30.1 0 1 0-60.2 0V75.383H551.723a30.1 30.1 0 0 0 0 60.2h172.678z m-242.13-202.774a30.1 30.1 0 0 0 0-60.2H95.823c-44.66 0-81.142 36.182-81.142 80.526V815.475C14.681 860.032 50.781 896 95.518 896h709.636c44.612 0 80.837-36.5 80.837-81.054V530.41a30.1 30.1 0 1 0-60.2 0V814.946c0 11.407-9.377 20.855-20.637 20.855H95.518c-11.539 0-20.638-9.066-20.638-20.33v-862.333c0-10.988 9.418-20.333 20.943-20.333h386.444z"  horiz-adv-x="1024" />

    
    <glyph glyph-name="school" unicode="&#58925;" d="M656-76.79999999999995c-19.2 0-35.2 16-35.2 35.2v176c0 19.2 16 35.2 35.2 35.2s35.2-16 35.2-35.2v-176c0-19.2-16-35.2-35.2-35.2zM134.4-76.79999999999995c-19.2 0-35.2 16-35.2 35.2v768c0 67.2 51.2 118.4 112 118.4H576c64 0 115.2-54.4 115.2-118.4v-403.2c0-19.2-16-35.2-35.2-35.2s-35.2 16-35.2 35.2V726.4c0 28.8-19.2 51.2-44.8 51.2H211.2c-25.6 0-44.8-22.4-44.8-51.2v-771.2c0-16-16-32-32-32zM924.8-54.39999999999998h-67.2V476.8c0 28.8-19.2 51.2-44.8 51.2h-166.4V595.2h166.4c64 0 112-54.4 112-118.4v-531.2zM979.2-76.79999999999995H35.2c-19.2 0-35.2 16-35.2 35.2 0 19.2 16 35.2 35.2 35.2h944c19.2 0 35.2-16 35.2-35.2-3.2-19.2-16-35.2-35.2-35.2zM556.8 572.8h-320c-19.2 0-35.2 16-35.2 35.2 0 19.2 12.8 32 32 32h320c19.2 0 35.2-16 35.2-35.2 0-16-16-32-32-32zM556.8 432h-320c-19.2 0-35.2 16-35.2 35.2 0 19.2 16 35.2 35.2 35.2h320c19.2 0 35.2-16 35.2-35.2-3.2-22.4-19.2-35.2-35.2-35.2zM556.8 288h-320c-19.2 0-35.2 16-35.2 35.2 0 19.2 16 35.2 35.2 35.2h320c19.2 0 35.2-16 35.2-35.2-3.2-19.2-19.2-35.2-35.2-35.2zM556.8 144h-320c-19.2 0-35.2 16-35.2 35.2 0 19.2 16 35.2 35.2 35.2h320c19.2 0 35.2-16 35.2-35.2-3.2-19.2-19.2-35.2-35.2-35.2z"  horiz-adv-x="1024" />

    
    <glyph glyph-name="kongjian" unicode="&#59053;" d="M516.795998 379.555217a32.581986 32.581986 0 0 0-14.103994 3.280998L69.005186 596.364126a33.931986 33.931986 0 0 0 0 60.508974L502.692004 870.400011a32.046987 32.046987 0 0 0 28.415988 0l427.98582-213.503911a33.977986 33.977986 0 0 0 0-60.345974L531.038992 382.976215a31.208987 31.208987 0 0 0-14.242994-3.420998z m-358.09785 247.039896l357.95785-176.220926 353.349852 176.220926-353.349852 176.313926-357.95785-176.313926zM516.795998-127.99957a32.185986 32.185986 0 0 0-14.242994 3.351999L74.474184 88.855339a33.931986 33.931986 0 0 0-15.079994 44.869981 32.255986 32.255986 0 0 0 43.635982 15.499994l413.695826-206.405914 413.695826 206.405914a32.581986 32.581986 0 0 0 43.682982-15.499994 34.047986 34.047986 0 0 0-15.080994-44.869981l-427.98482-213.50291a31.534987 31.534987 0 0 0-14.312994-3.351999z m427.79882 223.301906a33.116986 33.116986 0 0 0-32.581986 33.535986V620.754116a32.581986 32.581986 0 1 0 65.326973 0v-491.915794a33.069986 33.069986 0 0 0-32.581987-33.535986z m-865.465636-3.886998a33.116986 33.116986 0 0 0-32.581987 33.535986v495.709792a33.116986 33.116986 0 0 0 32.581987 33.534986 33.116986 33.116986 0 0 0 32.581986-33.535986v-495.708792a33.116986 33.116986 0 0 0-32.581986-33.535986z m465.453804 319.139866l4.933998-495.965792-65.302972-0.675-4.793998 495.941792 65.302972 0.675z"  horiz-adv-x="1024" />

    
    <glyph glyph-name="bangzhu" unicode="&#59019;" d="M504.691856 607.11335c-52.446683-0.859782-104.893367-24.073887-141.86398-63.623845-36.970613-39.549958-57.605374-92.856423-55.026029-145.303107 3.439127-67.922754 39.549958-128.107473 97.155332-162.498741v-17.195633c0-28.372796 23.214106-51.586902 51.586902-51.586902H558.858102c28.372796 0 51.586902 23.214106 51.586902 51.586902v17.195633c60.184719 36.110831 97.155332 101.45424 97.155332 171.95634 0 54.166247-21.494542 104.893367-59.324937 142.723761-38.690176 37.830395-90.277078 57.605374-143.583543 56.745592z m78.240134-337.034425c-9.457599-6.018472-15.476071-16.335852-15.476071-27.513014v-24.073887c0-4.298908-3.439127-8.597817-8.597817-8.597817H456.544081c-4.298908 0-8.597817 3.439127-8.597817 8.597817V242.565911c0 11.177162-6.018472 21.494542-16.335853 27.513014-48.147775 26.653233-79.099916 75.660789-81.679261 130.686818-1.719563 41.269521 13.756507 83.398825 42.989085 114.350966 29.232578 30.952141 69.642317 49.867338 110.911839 49.867338h2.579345c41.269521 0 80.819479-16.335852 110.052057-45.56843 30.092359-30.092359 47.287993-69.642317 47.287993-111.77162 0.859782-57.605374-30.092359-110.052057-80.819479-137.565072zM511.570109 620.869857c12.036944 0 21.494542 9.457599 21.494543 21.494543v58.465155c0 12.036944-9.457599 21.494542-21.494543 21.494542S490.075567 712.866499 490.075567 700.829555v-58.465155c0-12.036944 9.457599-21.494542 21.494542-21.494543zM346.492024 582.179681c4.298908-6.018472 11.177162-9.457599 17.195633-9.457599 4.298908 0 8.597817 0.859782 12.036944 4.298909 9.457599 6.878254 12.036944 20.634761 5.15869 30.092359L348.211587 655.261125c-6.878254 9.457599-20.634761 12.036944-30.092359 5.15869-9.457599-6.878254-12.036944-20.634761-5.158691-30.092359l33.531487-48.147775zM277.709488 491.042821l-55.026029 19.774979c-11.177162 4.298908-23.214106-1.719563-27.513014-12.896725s1.719563-23.214106 12.896725-27.513015l55.026029-19.774979c2.579345-0.859782 5.15869-1.719563 7.738035-1.719563 8.597817 0 17.195634 5.15869 19.774979 13.756507 4.298908 12.036944-1.719563 24.073887-12.896725 28.372796zM705.880772 660.419815c-9.457599 6.878254-23.214106 4.298908-30.092359-5.15869l-33.531486-48.147775c-6.878254-9.457599-4.298908-23.214106 5.15869-30.092359 3.439127-2.579345 7.738035-4.298908 12.036944-4.298909 6.878254 0 13.756507 3.439127 17.195634 9.457599l33.531486 48.147775c7.738035 9.457599 5.15869 23.214106-4.298909 30.092359zM828.829555 497.921075c-4.298908 11.177162-16.335852 17.195634-27.513014 12.896725l-55.026029-19.774979c-11.177162-4.298908-17.195634-16.335852-12.896725-27.513014 3.439127-8.597817 11.177162-13.756507 19.774979-13.756507 2.579345 0 5.15869 0 7.738035 1.719563l55.026029 19.774979c11.177162 3.439127 16.335852 15.476071 12.896725 26.653233zM568.315701 147.989924H447.086482c-12.036944 0-21.494542-9.457599-21.494542-21.494542S435.049538 105.00084 447.086482 105.00084h121.229219c12.036944 0 21.494542 9.457599 21.494542 21.494542S579.492863 147.989924 568.315701 147.989924zM531.345088 88.664987h-47.287993c-12.036944 0-21.494542-9.457599-21.494543-21.494542s9.457599-21.494542 21.494543-21.494542h47.287993c12.036944 0 21.494542 9.457599 21.494543 21.494542s-9.457599 21.494542-21.494543 21.494542zM517.588581 528.013434c-12.036944 0-21.494542-10.31738-21.494542-21.494542s10.31738-21.494542 21.494542-21.494543c18.915197 0.859782 36.970613-6.878254 50.72712-20.63476 13.756507-13.756507 21.494542-30.952141 21.494542-50.72712 0-12.036944 9.457599-21.494542 21.494543-21.494543s21.494542 9.457599 21.494542 21.494543c0 30.952141-12.036944 59.324937-33.531486 80.819479-22.354324 23.214106-50.72712 34.391268-81.679261 33.531486z"  horiz-adv-x="1024" />

    
    <glyph glyph-name="bangzhuzhongxin1" unicode="&#58887;" d="M511.841457 686.822595a291.410076 291.410076 0 0 1-206.225784-84.533935 285.444299 285.444299 0 0 1-85.43443-204.212178c0-77.117362 30.32916-149.619689 85.43443-204.162149a293.823902 293.823902 0 0 1 412.464074 0c55.10527 54.542461 85.434431 127.044788 85.43443 204.162149a285.456806 285.456806 0 0 1-85.43443 204.212178 291.410076 291.410076 0 0 1-206.225783 84.533935z m0-516.53374c-126.894705 0-230.126412 102.168623-230.126413 227.787627s103.244214 227.837655 230.126413 227.837655 230.126412-102.206144 230.126412-227.837655-103.244214-227.787627-230.126412-227.787627zM515.268339 761.413569a30.604311 30.604311 0 0 1 30.766901 30.466736V865.533264a30.766901 30.766901 0 0 1-61.521295 0v-73.665466A30.604311 30.604311 0 0 1 515.268339 761.413569z m-258.491994-103.206693a30.791915 30.791915 0 0 1 21.749448 8.917399 30.154064 30.154064 0 0 1 0 43.03614l-52.62891 52.128635a31.004531 31.004531 0 0 1-43.498895 0 30.241612 30.241612 0 0 1 0-43.073661L235.026898 667.124275a30.816928 30.816928 0 0 1 21.749447-8.954919z m-109.059908-192.955994H73.288052a30.454229 30.454229 0 1 1 0-60.920964h74.428385a30.454229 30.454229 0 1 1 0 60.920964z m802.690931-6.79123H875.966477a30.466736 30.466736 0 1 1 0-60.920965h74.440891a30.466736 30.466736 0 1 1 0 60.920965zM771.746727 653.366718a30.916983 30.916983 0 0 1 21.749447 8.917398l52.653924 52.128635a30.254119 30.254119 0 0 1 0 43.086168 31.042052 31.042052 0 0 1-43.523909 0l-52.628909-52.128635a30.29164 30.29164 0 0 1 0-43.086168 30.92949 30.92949 0 0 1 21.73694-8.917398zM625.328797 48.659542H398.304089a30.454229 30.454229 0 1 1 0-60.920965H625.328797a30.454229 30.454229 0 1 1 0 60.920965zM584.281249-67.029008H439.401664a30.454229 30.454229 0 1 1 0-60.920965h144.879585a30.454229 30.454229 0 1 1 0 60.920965z m0 0"  horiz-adv-x="1024" />

    


  </font>
</defs>
</svg>
